<svg width="34" height="35" viewBox="0 0 34 35" fill="none" xmlns="http://www.w3.org/2000/svg">
<path d="M29.9368 6.6866L29.8693 6.04352L29.2103 6.01575C23.6186 5.79142 20.2648 8.00695 18.4357 9.90414C17.5418 10.8335 16.9176 11.7714 16.5 12.532C16.0824 11.7714 15.4582 10.8335 14.5643 9.90414C12.7352 8.00695 9.38143 5.79355 3.78967 6.01575L3.13066 6.04352L3.06324 6.6866C3.03062 6.98785 2.32594 14.1237 6.55401 18.4778C8.742 20.7318 11.8326 21.8043 15.7388 21.6633V29H17.2612V21.6633C21.1674 21.8043 24.258 20.7318 26.446 18.4778C30.6741 14.1237 29.9694 6.98785 29.9368 6.6866ZM15.7388 20.1678C12.2632 20.3003 9.54455 19.388 7.66106 17.4502C4.60962 14.3138 4.47912 9.28243 4.54002 7.49633H4.57917C13.0353 7.49633 15.4365 13.6173 15.7388 14.4976V20.1678ZM25.3455 17.4459C23.4598 19.388 20.7433 20.3024 17.2612 20.1678V14.4997C17.557 13.6665 20.0277 7.49633 28.4361 7.49633H28.4622C28.5231 9.28029 28.3991 14.301 25.3455 17.4459Z" fill="#54DF48"/>
<path fill-rule="evenodd" clip-rule="evenodd" d="M29.8694 6.04357L29.9368 6.68665C29.9694 6.9879 30.6741 14.1237 26.446 18.4779C24.2955 20.6933 21.2731 21.7673 17.4613 21.6696C17.3948 21.6679 17.3282 21.6658 17.2613 21.6634V29H15.7388V21.6634C15.6719 21.6658 15.6052 21.6679 15.5388 21.6696C11.727 21.7673 8.70457 20.6933 6.55406 18.4779C2.32598 14.1237 3.03066 6.9879 3.06329 6.68665L3.13071 6.04357L3.78972 6.0158C9.38148 5.7936 12.7352 8.007 14.5644 9.90419C15.3796 10.7518 15.9706 11.6065 16.385 12.3274C16.425 12.3969 16.4633 12.4652 16.5 12.5321C16.5368 12.4652 16.5751 12.3969 16.6151 12.3274C17.0295 11.6065 17.6205 10.7518 18.4357 9.90419C20.2649 8.007 23.6186 5.79147 29.2104 6.0158L29.8694 6.04357ZM16.5 12.1273C16.9178 11.4163 17.5009 10.5877 18.2916 9.76555C20.1549 7.83288 23.5622 5.58904 29.2184 5.81596L30.0503 5.85102L30.1356 6.66512C30.1357 6.66524 30.1356 6.66499 30.1356 6.66512C30.1532 6.82776 30.3384 8.70472 29.9871 11.0916C29.6358 13.4779 28.7448 16.3977 26.5895 18.6172C24.3922 20.8809 21.3123 21.9673 17.4613 21.8696V29.2001H15.5388V21.8696C11.6877 21.9673 8.60794 20.8809 6.41055 18.6172C4.25529 16.3977 3.36431 13.4779 3.01304 11.0916C2.66168 8.7046 2.84684 6.82794 2.86441 6.66546L2.9498 5.85102L3.78129 5.81598C9.43738 5.59123 12.845 7.83266 14.7083 9.76538C15.4991 10.5875 16.0823 11.4163 16.5 12.1273ZM7.6611 17.4502C9.5446 19.388 12.2633 20.3003 15.7388 20.1678V14.4976C15.4365 13.6174 13.0354 7.49638 4.57922 7.49638H4.54007C4.47917 9.28248 4.60967 14.3139 7.6611 17.4502ZM4.73451 7.69708C8.81933 7.73398 11.4388 9.22482 13.0776 10.8106C14.7036 12.3841 15.3733 14.0604 15.5388 14.5314V19.9743C12.1955 20.0648 9.60341 19.1616 7.80452 17.3108C6.3145 15.7794 5.53095 13.7774 5.12891 11.9246C4.75487 10.2007 4.71405 8.61983 4.73451 7.69708ZM17.4613 19.9744C20.8107 20.0669 23.4009 19.1617 25.202 17.3066C26.6933 15.7708 27.4757 13.7694 27.8763 11.9185C28.2491 10.1967 28.2884 8.61889 28.2678 7.69722C20.2248 7.77772 17.7938 13.6194 17.4613 14.5346V19.9744ZM17.2613 20.1678C20.7434 20.3024 23.4598 19.388 25.3455 17.446C28.3991 14.3011 28.5231 9.28034 28.4622 7.49638H28.4361C20.0278 7.49638 17.5571 13.6665 17.2613 14.4998V20.1678Z" fill="#54DF48"/>
</svg>
