<svg width="34" height="35" viewBox="0 0 34 35" fill="none" xmlns="http://www.w3.org/2000/svg">
<path d="M26.4919 25.1554C25.036 21.0256 23.4867 16.476 17 16.476C14.1107 16.476 11.9439 17.3855 10.3758 19.2564C9.01574 20.8791 8.28348 22.9562 7.5082 25.1554C6.5984 27.7434 8.83369 30.2765 11.4748 29.7692C13.6595 29.349 16.66 28.6411 20.9486 29.466L22.5252 29.7692C25.1385 30.2716 27.4093 27.7652 26.4919 25.1554ZM22.813 28.2731C20.5831 27.8443 17.347 27.0886 12.7637 27.9699L11.1871 28.2731C9.69809 28.5595 8.42561 27.1323 8.945 25.6619C10.3945 21.5503 11.6463 17.9995 17 17.9995C22.3538 17.9995 23.6056 21.5503 25.0551 25.662C25.575 27.1337 24.3001 28.5595 22.813 28.2731Z" fill="#FF6B6B"/>
<path d="M23.3955 12.9297C24.5505 11.3897 24.5515 8.96076 23.3955 7.41945C22.1399 5.7454 19.9848 5.7458 18.7296 7.41945C17.5745 8.95944 17.5735 11.3884 18.7296 12.9297C19.9851 14.6038 22.1402 14.6034 23.3955 12.9297ZM21.0625 7.68631C21.9709 7.68631 22.7383 8.82579 22.7383 10.1746C22.7383 11.5234 21.9709 12.6629 21.0625 12.6629C20.1541 12.6629 19.3867 11.5234 19.3867 10.1746C19.3867 8.82579 20.1541 7.68631 21.0625 7.68631Z" fill="#FF6B6B"/>
<path d="M15.2705 12.9297C16.4255 11.3897 16.4265 8.96076 15.2705 7.41945C14.0149 5.7454 11.8598 5.7458 10.6046 7.41945C9.44951 8.95944 9.44854 11.3884 10.6046 12.9297C11.8601 14.6038 14.0152 14.6034 15.2705 12.9297ZM12.9375 7.68631C13.8459 7.68631 14.6133 8.82579 14.6133 10.1746C14.6133 11.5234 13.8459 12.6629 12.9375 12.6629C12.0291 12.6629 11.2617 11.5234 11.2617 10.1746C11.2617 8.82579 12.0291 7.68631 12.9375 7.68631Z" fill="#FF6B6B"/>
<path d="M9.58594 15.4559C9.58594 13.9158 8.33301 12.6629 6.79297 12.6629C5.25293 12.6629 4 13.9158 4 15.4559C4 16.9959 5.25293 18.2488 6.79297 18.2488C8.33301 18.2488 9.58594 16.9959 9.58594 15.4559ZM6.79297 16.7254C6.09295 16.7254 5.52344 16.1559 5.52344 15.4559C5.52344 14.7559 6.09295 14.1863 6.79297 14.1863C7.49299 14.1863 8.0625 14.7559 8.0625 15.4559C8.0625 16.1559 7.49299 16.7254 6.79297 16.7254Z" fill="#FF6B6B"/>
<path d="M27.207 12.6629C25.667 12.6629 24.4141 13.9158 24.4141 15.4559C24.4141 16.9959 25.667 18.2488 27.207 18.2488C28.7471 18.2488 30 16.9959 30 15.4559C30 13.9158 28.7471 12.6629 27.207 12.6629ZM27.207 16.7254C26.507 16.7254 25.9375 16.1559 25.9375 15.4559C25.9375 14.7559 26.507 14.1863 27.207 14.1863C27.9071 14.1863 28.4766 14.7559 28.4766 15.4559C28.4766 16.1559 27.9071 16.7254 27.207 16.7254Z" fill="#FF6B6B"/>
<path d="M19.0312 22.4129H17.7617V21.1434C17.7617 20.7227 17.4207 20.3816 17 20.3816C16.5793 20.3816 16.2383 20.7227 16.2383 21.1434V22.4129H14.9688C14.5481 22.4129 14.207 22.7539 14.207 23.1746C14.207 23.5953 14.5481 23.9363 14.9688 23.9363H16.2383V25.2059C16.2383 25.6265 16.5793 25.9676 17 25.9676C17.4207 25.9676 17.7617 25.6265 17.7617 25.2059V23.9363H19.0312C19.4519 23.9363 19.793 23.5953 19.793 23.1746C19.793 22.7539 19.4519 22.4129 19.0312 22.4129Z" fill="#FF6B6B"/>
</svg>
