<svg width="34" height="35" viewBox="0 0 34 35" fill="none" xmlns="http://www.w3.org/2000/svg">
<path d="M32.127 19.7787C31.7134 19.7787 31.3257 19.6724 30.9869 19.4915C30.2373 19.0837 29.7261 18.2882 29.7261 17.3778C29.7261 16.4818 30.2201 15.7007 30.9524 15.2872C31.2999 15.0919 31.6991 14.9799 32.127 14.9799C32.4199 14.9799 32.7013 15.0316 32.9598 15.1292C32.8564 14.3998 32.7042 13.6847 32.506 12.9868C32.1184 11.6199 31.5612 10.3247 30.8548 9.12712C30.49 8.50107 30.0822 7.90086 29.64 7.33224C29.3384 7.95542 28.7727 8.42927 28.0892 8.60732C27.8939 8.65902 27.6929 8.68486 27.4832 8.68486C26.1593 8.68486 25.0824 7.60793 25.0824 6.28403C25.0824 6.09449 25.1054 5.90782 25.1485 5.72977C25.3122 5.04053 25.7716 4.46617 26.3891 4.15027C25.809 3.7195 25.203 3.32893 24.5712 2.9757C23.4254 2.33528 22.1962 1.82697 20.9039 1.47374C20.229 1.28707 19.5369 1.14348 18.8305 1.04297C18.8736 1.22389 18.8965 1.4163 18.8965 1.61159C18.8965 2.13713 18.7271 2.62247 18.4399 3.01878C18.0034 3.62186 17.2941 4.01242 16.4957 4.01242C15.6973 4.01242 14.988 3.62186 14.5515 3.01878C14.2643 2.62247 14.0949 2.13713 14.0949 1.61159C14.0949 1.4163 14.1178 1.22389 14.1609 1.04297C13.4544 1.14348 12.7623 1.28707 12.0875 1.47374C10.7463 1.84133 9.47124 2.37549 8.28805 3.05037C7.67061 3.40073 7.07615 3.79129 6.5104 4.21919C7.10486 4.56955 7.53564 5.16689 7.65625 5.87049C7.6821 6.00546 7.69359 6.14331 7.69359 6.28403C7.69359 7.60793 6.61666 8.68486 5.29275 8.68486C5.14916 8.68486 5.00844 8.67337 4.87347 8.64753C4.17274 8.52404 3.57253 8.0904 3.22505 7.49593C2.79715 8.06168 2.40371 8.65327 2.05047 9.27071C1.38709 10.4252 0.861544 11.6687 0.488208 12.9753C0.295797 13.656 0.143591 14.3567 0.0402054 15.0689C0.244104 15.0115 0.462362 14.9799 0.686363 14.9799C1.18319 14.9799 1.64268 15.1321 2.02463 15.3877C2.66504 15.8184 3.0872 16.5508 3.0872 17.3778C3.0872 18.2222 2.65068 18.9631 1.99017 19.391V19.3939C1.61396 19.6351 1.16883 19.7787 0.686363 19.7787C0.448003 19.7787 0.215386 19.7442 0 19.6782C0.091898 20.3932 0.232617 21.0968 0.413541 21.7803C0.769646 23.1243 1.29232 24.4052 1.9557 25.5941C2.31181 26.2288 2.70525 26.8376 3.13889 27.4206C3.4433 26.7974 4.00905 26.3264 4.69541 26.1484C4.69541 26.1484 4.69541 26.1484 4.69829 26.1484C4.88783 26.0995 5.08598 26.0737 5.29275 26.0737C6.61666 26.0737 7.69359 27.1506 7.69359 28.4717C7.69359 28.6957 7.662 28.9139 7.60456 29.1207C7.41215 29.8013 6.92968 30.3584 6.29788 30.6514C6.86938 31.0965 7.47246 31.5043 8.10138 31.8719C9.34201 32.6013 10.686 33.1757 12.1047 33.5634C12.8025 33.7558 13.5205 33.9022 14.2528 33.9999C14.1494 33.7328 14.0949 33.4456 14.0949 33.147C14.0949 32.7277 14.204 32.3314 14.3935 31.9896C14.8013 31.2487 15.5911 30.7461 16.4957 30.7461C17.4003 30.7461 18.1901 31.2487 18.5979 31.9896C18.7874 32.3314 18.8965 32.7277 18.8965 33.147C18.8965 33.4456 18.842 33.7328 18.7386 33.9999C19.4709 33.9022 20.1888 33.7558 20.8867 33.5634C22.1962 33.2044 23.4426 32.6903 24.6028 32.0384C25.2375 31.6823 25.8463 31.286 26.4264 30.8524C25.8032 30.548 25.3323 29.9794 25.1571 29.293C25.1083 29.1035 25.0824 28.9024 25.0824 28.6985C25.0824 27.3746 26.1593 26.2977 27.4832 26.2977C27.7015 26.2977 27.914 26.3264 28.1179 26.3838C28.7985 26.5705 29.3614 27.0501 29.6543 27.679C30.0995 27.1075 30.5073 26.5045 30.872 25.8755C31.6158 24.6033 32.1959 23.2248 32.5807 21.766C32.7674 21.0652 32.9081 20.3444 33 19.6121C32.73 19.7212 32.4371 19.7787 32.127 19.7787ZM29.2552 24.6608C28.7124 24.4195 28.1122 24.2874 27.4832 24.2874C25.0508 24.2874 23.0721 26.2661 23.0721 28.6985C23.0721 29.3016 23.1928 29.876 23.4139 30.3986C22.5294 30.8782 21.5903 31.2659 20.6081 31.5531C19.9706 29.9076 18.3681 28.7359 16.4957 28.7359C14.6233 28.7359 13.0208 29.9076 12.3833 31.5531C11.3092 31.2372 10.284 30.8007 9.32478 30.2579C9.56888 29.7123 9.70385 29.1063 9.70385 28.4717C9.70385 26.0421 7.72518 24.0634 5.29275 24.0634C4.69254 24.0634 4.11818 24.184 3.59551 24.4052C3.09581 23.4747 2.69376 22.481 2.40371 21.4415C3.98608 20.7694 5.09747 19.2014 5.09747 17.3778C5.09747 15.583 4.01767 14.035 2.47263 13.3516V13.3487C2.77991 12.3148 3.1992 11.3298 3.719 10.4051C4.20721 10.5917 4.73849 10.6951 5.29275 10.6951C7.72518 10.6951 9.70385 8.71645 9.70385 6.28403C9.70385 5.73551 9.60334 5.2071 9.41667 4.72176C10.3787 4.18473 11.4097 3.75683 12.4866 3.44955H12.4895C13.1845 4.96874 14.718 6.02269 16.4957 6.02269C18.2733 6.02269 19.8069 4.96874 20.5019 3.44955H20.5047C21.5156 3.73673 22.4863 4.13304 23.3967 4.62412C23.187 5.1353 23.0721 5.69818 23.0721 6.28403C23.0721 8.71645 25.0508 10.6951 27.4832 10.6951C28.1036 10.6951 28.6952 10.5659 29.2322 10.3333C29.7577 11.258 30.1827 12.2459 30.4986 13.2826C28.8703 13.9317 27.7159 15.5226 27.7159 17.3778C27.7159 19.2617 28.9019 20.8728 30.5704 21.5046C30.2545 22.616 29.8094 23.6729 29.2552 24.6608Z" fill="#939393"/>
<path fill-rule="evenodd" clip-rule="evenodd" d="M16.4986 13.6645C14.3685 13.6645 12.6417 15.3913 12.6417 17.5213C12.6417 19.6514 14.3685 21.3782 16.4986 21.3782C18.6287 21.3782 20.3554 19.6514 20.3554 17.5213C20.3554 15.3913 18.6287 13.6645 16.4986 13.6645ZM10.6315 17.5213C10.6315 14.281 13.2583 11.6542 16.4986 11.6542C19.7389 11.6542 22.3657 14.281 22.3657 17.5213C22.3657 20.7616 19.7389 23.3884 16.4986 23.3884C13.2583 23.3884 10.6315 20.7616 10.6315 17.5213Z" fill="#939393"/>
</svg>
