<svg width="34" height="35" viewBox="0 0 34 35" fill="none" xmlns="http://www.w3.org/2000/svg">
<path d="M13.0057 1.9158H12.0085V1.9713H13.0057V1.9158Z" fill="#5F27CD"/>
<path d="M23.0029 28.5634C23.0142 28.4246 23.0199 28.2831 23.0199 28.1388L23.0029 28.5634Z" fill="#5F27CD"/>
<path d="M23.0199 1.9158H21.0256V1.9713H23.0199V1.9158Z" fill="#5F27CD"/>
<path d="M23.0199 1.9158H22.0228V1.9713H23.0199V1.9158Z" fill="#5F27CD"/>
<path d="M9 1V2.94265H11.0114V27.6337C10.9972 27.7919 10.9886 27.9584 10.9886 28.1388C10.9886 31.3691 13.6866 34 17.0028 34C20.1709 34 22.7806 31.5967 23.0029 28.5634C23.0142 28.4246 23.0199 28.2831 23.0199 28.1388L23.0199 2.94265H25V1H9ZM12.0085 1.9713V1.9158H13.0057V1.9713H12.0085ZM21.0256 2.94265V6.22572L13.0057 8.88714V2.94265H21.0256ZM17.0028 32.0574C14.9345 32.0574 13.2251 30.5227 13.0057 28.5634V28.5606C12.9915 28.4218 12.9829 28.2803 12.9829 28.1388C12.9829 28.0083 12.9886 27.8945 13 27.7919L13.0057 27.7364V21.6586H18.1311V19.716H13.0057V16.7521H16.339V14.8094H13.0057V10.938L21.0256 8.27382V28.1388C21.0256 30.2979 19.2194 32.0574 17.0028 32.0574ZM23.0199 1.9713H21.0256V1.9158H23.0199V1.9713Z" fill="#5F27CD"/>
<path d="M12.0085 1.9158V1.9713H13.0057V1.9158H12.0085ZM21.0256 1.9158V1.9713H23.0199V1.9158H21.0256Z" fill="#5F27CD"/>
</svg>
