<svg width="34" height="35" viewBox="0 0 34 35" fill="none" xmlns="http://www.w3.org/2000/svg">
<path d="M0 10.0097V8.56124C0 5.86961 2.1898 3.67969 4.88155 3.67969H20.3348C21.4765 3.67969 22.4262 4.51603 22.6043 5.60819H23.9201C25.3454 5.60819 26.5049 6.76777 26.5049 8.19295V8.32109H33V10.2496H26.5049V10.3778C26.5049 11.803 25.3454 12.9625 23.9202 12.9625H22.6044C22.4262 14.0547 21.4766 14.8911 20.3348 14.8911H14.5445L13.0316 18.6905H11.1053L9.57309 22.3869C9.56723 22.4033 9.55956 22.4358 9.58586 22.4743C9.61583 22.5182 9.65437 22.5182 9.66894 22.5182H12.1868V31.3212H3.63941C1.7365 31.3212 0.188397 29.7731 0.188397 27.8702V22.2653L3.49568 14.6908C1.47701 14.0923 0 12.2202 0 10.0097ZM22.6479 11.0342H23.9202C24.282 11.0342 24.5764 10.7398 24.5764 10.378V8.19315C24.5764 7.83131 24.282 7.53688 23.9202 7.53688H22.6479V11.0342ZM16.781 12.9627H20.3348C20.5397 12.9627 20.7063 12.7961 20.7063 12.5913V5.97976C20.7063 5.77487 20.5397 5.60832 20.3348 5.60832H16.781V12.9627ZM2.11703 27.8704C2.11703 28.7099 2.79997 29.3929 3.63954 29.3929H10.2583V27.7896H2.11703V27.8704ZM1.9285 10.0097C1.9285 11.638 3.25321 12.9627 4.88149 12.9627H6.35469L2.11696 22.6681V25.8611H10.2583V24.4471H9.66881C8.99785 24.4471 8.37143 24.1162 7.99316 23.5622C7.61475 23.0082 7.5347 22.3044 7.77891 21.6796L11.392 12.9627H14.8524V5.60832H4.88149C3.25321 5.60832 1.9285 6.93302 1.9285 8.5613V10.0097Z" fill="#FF9ACB"/>
</svg>
