<svg width="34" height="35" viewBox="0 0 34 35" fill="none" xmlns="http://www.w3.org/2000/svg">
<path d="M29.7933 13.2435V1H4.12333V13.2736C2.88333 13.7454 2 14.95 2 16.3587V32.8919H4.20333V35H6.53667V32.8919H27.46V35H29.7933V32.8919H32V16.3587C32 14.9165 31.0767 13.6919 29.7933 13.2435ZM28.7133 15.4017C29.24 15.4017 29.6667 15.83 29.6667 16.3587C29.6667 16.8874 29.24 17.3191 28.7133 17.3191C28.1867 17.3191 27.7567 16.8874 27.7567 16.3587C27.7567 15.83 28.1867 15.4017 28.7133 15.4017ZM6.45667 3.34229H27.46V13.3104C26.2667 13.8023 25.4233 14.9835 25.4233 16.3587V22.8636H8.57667V16.3587C8.57667 14.95 7.69333 13.7454 6.45667 13.2736V3.34229ZM5.29 15.4017C5.81667 15.4017 6.24333 15.83 6.24333 16.3587C6.24333 16.8874 5.81667 17.3191 5.29 17.3191C4.76333 17.3191 4.33333 16.8874 4.33333 16.3587C4.33333 15.83 4.76333 15.4017 5.29 15.4017ZM29.6667 30.5496H4.33333V19.5175C4.63667 19.6112 4.95667 19.6614 5.29 19.6614C5.62 19.6614 5.94333 19.6112 6.24333 19.5175V25.2059H27.7567V19.5175C28.06 19.6112 28.38 19.6614 28.7133 19.6614C29.0433 19.6614 29.3633 19.6112 29.6667 19.5175V30.5496Z" fill="#99CCFF"/>
</svg>
