<svg width="34" height="35" viewBox="0 0 34 35" fill="none" xmlns="http://www.w3.org/2000/svg">
<path d="M31.3478 25.3283H25.7551C26.487 24.4977 26.9326 23.4093 26.9326 22.2174V13.087C26.9326 12.6444 26.5742 12.2848 26.1304 12.2848H17.8022V11.1847C19.2967 10.8229 20.4109 9.47479 20.4109 7.86957C20.4109 7.11452 20.1158 5.62689 19.5575 4.32767C19.2778 3.67697 18.9278 3.06317 18.5074 2.60968C18.0868 2.15603 17.5829 1.85 17 1.85C16.4171 1.85 15.9132 2.15603 15.4926 2.60968C15.0722 3.06317 14.7222 3.67697 14.4425 4.32767C13.8842 5.62689 13.5891 7.11452 13.5891 7.86957C13.5891 9.47415 14.7033 10.8229 16.1978 11.1847V12.2848H7.86957C7.42578 12.2848 7.06739 12.6444 7.06739 13.087V22.2174C7.06739 23.4093 7.51304 24.4977 8.24492 25.3283H2.65217C2.20853 25.3283 1.85 25.6868 1.85 26.1304V28.7391C1.85 30.6199 3.38009 32.15 5.26087 32.15H28.7391C30.6199 32.15 32.15 30.6199 32.15 28.7391V26.1304C32.15 25.6868 31.7915 25.3283 31.3478 25.3283ZM15.1935 7.86957C15.1935 7.1312 15.4829 6.01076 15.8725 5.06958C16.0668 4.60042 16.2823 4.18473 16.4927 3.88911C16.5981 3.74105 16.6985 3.62838 16.7901 3.55416C16.8834 3.47848 16.9531 3.45435 17 3.45435C17.047 3.45435 17.1166 3.47848 17.2099 3.55416C17.3015 3.62838 17.4019 3.74105 17.5073 3.88911C17.7177 4.18473 17.9332 4.60042 18.1275 5.06958C18.5171 6.01076 18.8065 7.1312 18.8065 7.86957C18.8065 8.86529 17.9957 9.67609 17 9.67609C16.0043 9.67609 15.1935 8.86529 15.1935 7.86957ZM8.67174 13.8891H25.3283V17.5022H8.67174V13.8891ZM8.67174 22.2174V19.1065H25.3283V22.2174C25.3283 23.9325 23.9325 25.3283 22.2174 25.3283H11.7826C10.0675 25.3283 8.67174 23.9325 8.67174 22.2174ZM30.5457 28.7391C30.5457 29.7349 29.7349 30.5457 28.7391 30.5457H5.26087C4.26514 30.5457 3.45435 29.7349 3.45435 28.7391V26.9326H30.5457V28.7391Z" fill="#F89B55" stroke="#F89B55" stroke-width="0.3"/>
</svg>
