<svg width="46" height="35" viewBox="0 0 46 35" fill="none" xmlns="http://www.w3.org/2000/svg">
<path d="M24.0556 14.7489V12.2708C26.8328 12.018 29.0123 9.59389 29.0123 6.64722C29.0123 3.53535 26.5729 1 23.5717 1C20.5736 1 18.1311 3.53535 18.1311 6.64722H20.4047C20.4047 4.83674 21.8274 3.36003 23.5717 3.36003C25.3192 3.36003 26.7386 4.83674 26.7386 6.64722C26.7386 8.3397 25.5043 9.73212 23.9225 9.91418H21.782V14.7489L0 31.6568C0.448242 32.4356 0.889987 33.2178 1.33173 34H44.6943C45.1328 33.265 45.5712 32.5267 46 31.7849L24.0556 14.7489ZM3.81655 31.64L22.9188 16.8122L42.0178 31.64H3.81655Z" fill="#00D2D3"/>
</svg>
