<svg width="30" height="30" viewBox="0 0 30 30" fill="none" xmlns="http://www.w3.org/2000/svg">
<path d="M14.9489 0C8.91168 0 4 4.73133 4 10.5469C4 12.5118 4.56502 14.4293 5.63437 16.0929L14.3257 29.5845C14.4921 29.843 14.7855 30 15.1009 30C15.1033 30 15.1057 30 15.1081 30C15.4263 29.9976 15.7202 29.8357 15.8837 29.5727L24.3535 15.9504C25.3638 14.322 25.8978 12.4535 25.8978 10.5469C25.8978 4.73133 20.9861 0 14.9489 0ZM22.7875 15.0479L15.0871 27.4328L7.18534 15.1668C6.29525 13.7821 5.81265 12.1846 5.81265 10.5469C5.81265 5.70059 9.91788 1.74609 14.9489 1.74609C19.9799 1.74609 24.0791 5.70059 24.0791 10.5469C24.0791 12.136 23.6283 13.6927 22.7875 15.0479Z" fill="#C8D6E5"/>
<path d="M14.9489 5.27344C11.9303 5.27344 9.47446 7.63911 9.47446 10.5469C9.47446 13.4361 11.8903 15.8203 14.9489 15.8203C18.0452 15.8203 20.4234 13.4043 20.4234 10.5469C20.4234 7.63911 17.9675 5.27344 14.9489 5.27344ZM14.9489 14.0742C12.926 14.0742 11.2871 12.4903 11.2871 10.5469C11.2871 8.60837 12.9365 7.01954 14.9489 7.01954C16.9613 7.01954 18.6046 8.60837 18.6046 10.5469C18.6046 12.4619 17.0039 14.0742 14.9489 14.0742Z" fill="#C8D6E5"/>
</svg>
