<svg width="37" height="37" viewBox="0 0 37 37" fill="none" xmlns="http://www.w3.org/2000/svg">
    <path d="M28.5946 27.1929C31.2366 24.2059 32.6775 20.3991 32.6775 16.3696C32.6775 7.34436 25.3476 0 16.3402 0C7.32986 0 0 7.34436 0 16.3696C0 25.3978 7.32986 32.7421 16.3402 32.7421C20.3617 32.7421 24.1611 31.2955 27.1479 28.6454L35.5592 37L37 35.5446L28.5946 27.1929ZM26.4465 26.4989C23.746 29.2017 20.1571 30.6923 16.3402 30.6923C8.45798 30.6923 2.04581 24.2674 2.04581 16.3696C2.04581 8.47471 8.45798 2.04986 16.3402 2.04986C24.2195 2.04986 30.6317 8.47471 30.6317 16.3696C30.6317 20.197 29.147 23.793 26.4465 26.4989Z"
          fill="white"/>
</svg>
