<svg width="37" height="37" viewBox="0 0 37 37" fill="none" xmlns="http://www.w3.org/2000/svg">
<path d="M37 6.2229H5.69165V8.33124H37V6.2229Z" fill="white"/>
<path d="M37 17.9152H5.69165V20.0235H37V17.9152Z" fill="white"/>
<path d="M37 29.5833H5.69165V31.6916H37V29.5833Z" fill="white"/>
<path d="M1.2837 8.5541C1.99267 8.5541 2.5674 7.98234 2.5674 7.27705C2.5674 6.57175 1.99267 6 1.2837 6C0.574731 6 0 6.57175 0 7.27705C0 7.98234 0.574731 8.5541 1.2837 8.5541Z" fill="white"/>
<path d="M1.2837 20.2343C1.99267 20.2343 2.5674 19.6625 2.5674 18.9572C2.5674 18.2519 1.99267 17.6802 1.2837 17.6802C0.574731 17.6802 0 18.2519 0 18.9572C0 19.6625 0.574731 20.2343 1.2837 20.2343Z" fill="white"/>
<path d="M1.2837 31.9145C1.99267 31.9145 2.5674 31.3427 2.5674 30.6374C2.5674 29.9321 1.99267 29.3604 1.2837 29.3604C0.574731 29.3604 0 29.9321 0 30.6374C0 31.3427 0.574731 31.9145 1.2837 31.9145Z" fill="white"/>
</svg>
