<svg width="37" height="37" viewBox="0 0 37 37" fill="none" xmlns="http://www.w3.org/2000/svg">
<path d="M4.40079 1.91546C4.31972 2.00318 4.18274 2.18638 4.09119 2.31229C2.38944 4.59631 0.355718 8.10757 0.508072 11.4965C0.766655 17.1708 8.33265 24.7125 10.6459 26.889C12.9599 29.0648 20.9438 36.1517 26.5488 35.9975C27.4831 35.9742 28.4735 35.7754 29.491 35.4062C31.8399 34.5538 33.9603 32.9326 35.307 31.7393C35.307 31.7393 35.5971 31.4896 35.7089 31.3694C35.9905 31.0617 36.2135 30.6125 36.3903 29.9964C36.4804 29.6816 36.5 29.3499 36.5 29.1278C36.5 28.8802 36.4755 28.4006 36.3148 27.9642C36.0947 27.3672 35.8424 26.94 35.5404 26.6528C35.3168 26.4427 30.2633 22.4356 30.2311 22.4129L30.1927 22.3875C29.9187 22.1746 29.6329 22.0083 29.3421 21.893C28.5804 21.591 27.7368 21.579 26.966 21.8577C26.4761 22.0352 26.0351 22.3288 25.6947 22.7008L23.958 24.5824C23.7952 24.7592 23.4926 24.9424 23.3857 24.9686C23.2731 24.9898 23.1949 24.9955 23.1445 24.9969L11.4888 14.0337C11.4608 14.0068 11.4468 13.9807 11.4391 13.9623C11.4447 13.9453 11.4517 13.9304 11.4552 13.9191C11.4978 13.8314 11.6991 13.5527 11.9507 13.2769L13.6692 11.3939C14.5785 10.4043 14.8042 8.86514 14.2255 7.66477C14.0194 7.23683 13.737 6.91711 13.6063 6.76644L13.5385 6.68156C13.505 6.64266 9.25027 1.91688 9.05947 1.73933C8.58634 1.29441 7.84134 1.05392 6.78255 1.00299C6.1941 0.974694 5.45609 1.15012 5.02768 1.41961C4.75232 1.59433 4.54616 1.75702 4.40079 1.91546ZM7.61071 3.27569C7.84903 3.52043 11.7215 7.81332 11.9242 8.03825L12.0667 8.21297C12.1247 8.27875 12.261 8.43366 12.3407 8.59776C12.5475 9.02783 12.4665 9.58805 12.131 9.95374L10.4104 11.8388C10.2091 12.0588 9.71991 12.6219 9.52562 13.0908C9.39703 13.4035 9.33623 13.6758 9.33553 13.992C9.35649 14.5961 9.60949 15.1591 10.0554 15.5842L21.8286 26.6577C22.2765 27.0786 22.9279 27.213 23.7651 27.0567C24.4123 26.9357 25.1133 26.4406 25.4907 26.0317L27.2302 24.1466C27.3462 24.02 27.4999 23.9196 27.6732 23.8559C27.9626 23.7512 28.2924 23.7562 28.5776 23.8694C28.7439 23.9351 28.8823 24.0448 28.9277 24.0809C28.971 24.1148 29.006 24.1396 29.0374 24.1594C29.5218 24.5392 33.8673 27.996 34.1029 28.1969C34.1036 28.1983 34.2063 28.315 34.351 28.7062C34.3712 28.7614 34.4034 28.9241 34.4034 29.1271C34.4034 29.2735 34.3873 29.369 34.3768 29.4036C34.2678 29.7828 34.1776 29.9158 34.1776 29.9186C34.1099 29.9872 33.9687 30.1053 33.9449 30.1258C32.7156 31.2144 30.8231 32.668 28.7831 33.4079C27.9766 33.7008 27.2078 33.8578 26.4949 33.8755C22.6658 33.9809 16.3326 29.3393 12.0737 25.3336C7.81408 21.3286 2.77871 15.2744 2.60259 11.3989C2.474 8.60484 4.2694 5.59791 5.74752 3.6131L5.80413 3.5367C5.83697 3.49143 5.89638 3.40655 5.92713 3.36977C5.97954 3.31955 6.05782 3.27074 6.12002 3.23113C6.21297 3.18303 6.5016 3.11512 6.68191 3.12432C7.30111 3.15473 7.58765 3.2672 7.61071 3.27569Z" fill="white"/>
</svg>
