<svg width="38" height="32" viewBox="0 0 38 32" fill="none" xmlns="http://www.w3.org/2000/svg">
<path d="M37.2464 3.93525H27.0292V0.925547C27.0292 0.510124 26.6921 0.173828 26.2757 0.173828H1.71392C1.29752 0.173828 0.960449 0.510124 0.960449 0.925547V26.6648C0.960449 26.9587 1.13324 27.2244 1.3995 27.3487C1.50148 27.3939 1.60911 27.4165 1.71392 27.4165C1.88954 27.4165 2.06801 27.3544 2.20398 27.2328L8.90598 21.4847H11.9284V24.4916C11.9284 24.907 12.2655 25.2433 12.6819 25.2433H30.0516L36.7536 30.9914C36.8924 31.113 37.068 31.1751 37.2464 31.1751C37.3513 31.1751 37.4589 31.1525 37.5609 31.1073C37.8271 30.9858 37.9999 30.7173 37.9999 30.4234V4.68696C37.9999 4.27154 37.6628 3.93525 37.2464 3.93525ZM8.62555 19.9813C8.44426 19.9813 8.27147 20.0463 8.13267 20.165L2.46458 25.0257V1.67727H25.5194V19.9813H8.62555ZM36.493 28.7843L30.8221 23.9236C30.6861 23.8049 30.5133 23.7399 30.332 23.7399H13.4354V21.4847H26.2757C26.6921 21.4847 27.0292 21.1485 27.0292 20.733V19.6111H32.6123V18.1077H27.0292V15.146H32.6123V13.6426H27.0292V10.6555H32.6123V9.15205H27.0292V5.44151H36.493V28.7843Z" fill="white"/>
<path d="M13.6903 6.41647C13.0133 6.41647 12.3533 6.58886 11.7103 6.93646L11.3109 5.83432C11.6593 5.65063 12.0502 5.50367 12.4865 5.39063C12.9227 5.27759 13.3844 5.22107 13.8773 5.22107C14.4608 5.22107 14.9395 5.3002 15.3134 5.45846C15.6873 5.61671 15.9876 5.81736 16.2114 6.06322C16.4352 6.30909 16.5938 6.58321 16.6788 6.88276C16.7666 7.18515 16.8091 7.4734 16.8091 7.74752C16.8091 8.09512 16.7411 8.40316 16.6108 8.67445C16.4776 8.94575 16.3134 9.19727 16.1207 9.43182C15.9253 9.66638 15.71 9.89247 15.4749 10.1044C15.2398 10.3192 15.0245 10.5424 14.8291 10.7713C14.6336 11.0003 14.4693 11.2518 14.339 11.5231C14.2059 11.7944 14.1407 12.0967 14.1407 12.433C14.1407 12.4839 14.1407 12.5404 14.1407 12.6026C14.1407 12.6648 14.1464 12.7213 14.1549 12.7722H12.9567C12.917 12.5687 12.8944 12.3539 12.8944 12.1278C12.8944 11.8 12.9538 11.5061 13.07 11.2405C13.1861 10.9748 13.3391 10.7261 13.5232 10.4972C13.7073 10.2683 13.9028 10.0535 14.1067 9.8529C14.3107 9.65225 14.5061 9.4516 14.6902 9.24813C14.8744 9.04466 15.0245 8.82988 15.1435 8.6038C15.2596 8.37772 15.3191 8.13469 15.3191 7.86904C15.3191 7.43949 15.1803 7.08906 14.9055 6.82059C14.6279 6.55212 14.2229 6.41647 13.6903 6.41647ZM14.6591 15.2534C14.6591 15.5303 14.5656 15.7706 14.3815 15.974C14.1974 16.1775 13.9453 16.2792 13.628 16.2792C13.3107 16.2792 13.0587 16.1775 12.8745 15.974C12.6904 15.7706 12.5969 15.5303 12.5969 15.2534C12.5969 14.9765 12.6904 14.7391 12.8745 14.5328C13.0587 14.3293 13.3107 14.2276 13.628 14.2276C13.9453 14.2276 14.1974 14.3293 14.3815 14.5328C14.5656 14.7391 14.6591 14.9793 14.6591 15.2534Z" fill="white"/>
</svg>
