<svg width="49" height="31" viewBox="0 0 49 31" fill="none" xmlns="http://www.w3.org/2000/svg">
<path d="M32.0874 0H18.0042C17.6913 0 17.4348 0.255921 17.4348 0.568086V15.3242C17.4348 15.5464 17.5673 15.7489 17.7674 15.8417C17.8407 15.8754 17.9225 15.8951 18.0042 15.8951C18.1423 15.8951 18.272 15.8445 18.3763 15.7573L22.179 12.4951H32.0874C32.4003 12.4951 32.6568 12.2391 32.6568 11.9242V0.568086C32.6568 0.255921 32.4003 0 32.0874 0ZM31.5152 11.3561H21.9676C21.8295 11.3561 21.6998 11.4067 21.5955 11.4939L18.5736 14.0896V1.13898H31.5152V11.3561Z" fill="white"/>
<path d="M29.7956 8.12756H20.5243V9.26373H29.7956V8.12756Z" fill="white"/>
<path d="M29.7956 5.56555H20.5243V6.70172H29.7956V5.56555Z" fill="white"/>
<path d="M29.7956 2.9895H20.5243V4.12567H29.7956V2.9895Z" fill="white"/>
<path d="M14.0915 22.1103C13.4996 20.8616 12.4735 19.0674 11.0894 17.9622C13.0627 17.0144 14.4298 14.998 14.4298 12.6666C14.4298 9.42401 11.7857 6.78607 8.53834 6.78607C5.28816 6.78607 2.64404 9.42401 2.64404 12.6666C2.64404 14.998 4.01119 17.0144 5.98724 17.9622C4.60034 19.0674 3.57427 20.8616 2.98231 22.1103C1.74199 24.7201 0.904785 27.9711 0.904785 30.1985C0.904785 30.64 1.2656 31 1.70816 31H15.36C15.8026 31 16.1634 30.64 16.1634 30.1985C16.1691 27.9711 15.3319 24.7201 14.0915 22.1103ZM4.25363 12.6638C4.25363 10.3043 6.17612 8.38627 8.54117 8.38627C10.9034 8.38627 12.8259 10.3043 12.8259 12.6638C12.8259 15.0233 10.9034 16.9385 8.54117 16.9385C6.17612 16.9385 4.25363 15.0233 4.25363 12.6638ZM2.55102 29.397C2.71734 27.4481 3.43332 24.9085 4.43685 22.7965C5.69407 20.1501 7.22756 18.5696 8.53834 18.5696C9.84631 18.5696 11.3798 20.1501 12.637 22.7965C13.6433 24.9085 14.3593 27.4481 14.5228 29.397H2.55102Z" fill="white"/>
<path d="M46.8076 22.1103C46.2156 20.8616 45.1896 19.0674 43.8055 17.9622C45.7787 17.0144 47.1459 14.998 47.1459 12.6666C47.1459 9.42401 44.5018 6.78607 41.2544 6.78607C38.0042 6.78607 35.3601 9.42401 35.3601 12.6666C35.3601 14.998 36.7273 17.0144 38.7033 17.9622C37.3164 19.0674 36.2903 20.8616 35.6984 22.1103C34.4581 24.7201 33.6208 27.9711 33.6208 30.1985C33.6208 30.64 33.9817 31 34.4242 31H48.0761C48.5187 31 48.8795 30.64 48.8795 30.1985C48.8823 27.9711 48.0479 24.7201 46.8076 22.1103ZM36.9697 12.6638C36.9697 10.3043 38.8922 8.38627 41.2572 8.38627C43.6194 8.38627 45.5419 10.3043 45.5419 12.6638C45.5419 15.0233 43.6194 16.9385 41.2572 16.9385C38.8922 16.9385 36.9697 15.0233 36.9697 12.6638ZM35.2671 29.397C35.4334 27.4481 36.1494 24.9085 37.1529 22.7965C38.4101 20.1501 39.9436 18.5696 41.2544 18.5696C42.5624 18.5696 44.0958 20.1501 45.3531 22.7965C46.3594 24.9085 47.0754 27.4481 47.2389 29.397H35.2671Z" fill="white"/>
</svg>
