<svg width="34" height="39" viewBox="0 0 34 39" fill="none" xmlns="http://www.w3.org/2000/svg">
<path d="M3.43192 6.80551C4.37963 6.80551 5.1479 6.04347 5.1479 5.10344C5.1479 4.16341 4.37963 3.40137 3.43192 3.40137C2.48421 3.40137 1.71594 4.16341 1.71594 5.10344C1.71594 6.04347 2.48421 6.80551 3.43192 6.80551Z" fill="white"/>
<path d="M1.71598 17.3423C2.66369 17.3423 3.43196 16.5803 3.43196 15.6402C3.43196 14.7002 2.66369 13.9382 1.71598 13.9382C0.768268 13.9382 0 14.7002 0 15.6402C0 16.5803 0.768268 17.3423 1.71598 17.3423Z" fill="white"/>
<path d="M25.7159 3.40412C26.6636 3.40412 27.4319 2.64209 27.4319 1.70206C27.4319 0.762041 26.6636 0 25.7159 0C24.7682 0 24 0.762041 24 1.70206C24 2.64209 24.7682 3.40412 25.7159 3.40412Z" fill="white"/>
<path d="M32.284 13.1585C33.2317 13.1585 34 12.3964 34 11.4564C34 10.5164 33.2317 9.75432 32.284 9.75432C31.3363 9.75432 30.568 10.5164 30.568 11.4564C30.568 12.3964 31.3363 13.1585 32.284 13.1585Z" fill="white"/>
<path d="M24.3914 25.8529C23.5379 24.048 22.0585 21.4545 20.0629 19.8569C22.9079 18.487 24.8791 15.5724 24.8791 12.2024C24.8791 7.51546 21.0668 3.70245 16.3847 3.70245C11.6986 3.70245 7.88629 7.51546 7.88629 12.2024C7.88629 15.5724 9.85751 18.487 12.7066 19.8569C10.7069 21.4545 9.22754 24.048 8.37404 25.8529C6.58575 29.6252 5.37866 34.3244 5.37866 37.5439C5.37866 38.1821 5.89888 38.7024 6.53697 38.7024H26.2203C26.8584 38.7024 27.3786 38.1821 27.3786 37.5439C27.3868 34.3244 26.1837 29.6252 24.3914 25.8529ZM10.207 12.1984C10.207 8.78782 12.9789 6.01545 16.3888 6.01545C19.7947 6.01545 22.5665 8.78782 22.5665 12.1984C22.5665 15.609 19.7947 18.3772 16.3888 18.3772C12.9789 18.3772 10.207 15.609 10.207 12.1984ZM7.75626 36.3854C7.99605 33.5683 9.02835 29.8976 10.4752 26.8447C12.2879 23.0195 14.4989 20.735 16.3888 20.735C18.2746 20.735 20.4856 23.0195 22.2983 26.8447C23.7492 29.8976 24.7815 33.5683 25.0173 36.3854H7.75626Z" fill="white"/>
</svg>
