<svg width="43" height="40" viewBox="0 0 43 40" fill="none" xmlns="http://www.w3.org/2000/svg">
<path d="M19.0113 26.1503C18.1587 24.3474 16.6801 21.7517 14.6824 20.1534C17.5264 18.7847 19.4989 15.868 19.4989 12.4983C19.4989 7.81338 15.686 4 11.0047 4C6.32031 4 2.50736 7.81338 2.50736 12.4983C2.50736 15.868 4.4799 18.7816 7.32703 20.1534C5.32932 21.7517 3.8507 24.3474 2.99499 26.1503C1.20492 29.9228 0 34.6203 0 37.8421C0 38.4809 0.519088 39 1.15773 39H20.8423C21.4809 39 22 38.4809 22 37.8421C22.0031 34.6203 20.8014 29.9228 19.0113 26.1503ZM4.82597 12.4983C4.82597 9.0908 7.59759 6.31571 11.0079 6.31571C14.4118 6.31571 17.1866 9.08765 17.1866 12.4983C17.1866 15.9058 14.415 18.6777 11.0079 18.6777C7.59759 18.6777 4.82597 15.9089 4.82597 12.4983ZM2.37523 36.6811C2.61432 33.8652 3.64622 30.1965 5.09338 27.1414C6.90548 23.3154 9.11711 21.0343 11.0047 21.0343C12.8892 21.0343 15.1008 23.3186 16.9129 27.1414C18.3632 30.1965 19.3983 33.8652 19.6342 36.6811H2.37523Z" fill="white"/>
<path d="M25 21V39.027H42.9891V21H25ZM32.8937 23.4413H35.3023V25.9H32.8937V23.4413ZM40.7937 36.5858H27.1953V23.4413H30.6984V28.3412H37.4976V23.4413H40.7937V36.5858Z" fill="white"/>
<path d="M25 0V18.027H42.9891V0H25ZM32.8937 2.44127H35.3023V4.89997H32.8937V2.44127ZM40.7937 15.5858H27.1953V2.44127H30.6984V7.34124H37.4976V2.44127H40.7937V15.5858Z" fill="white"/>
</svg>
