<svg width="46" height="31" viewBox="0 0 46 31" fill="none" xmlns="http://www.w3.org/2000/svg">
<path d="M1.88764 30.8259L0.410889 29.3586L13.115 16.6128C13.3115 16.4168 13.5765 16.3069 13.8534 16.3069C13.8564 16.3069 13.8564 16.3069 13.8594 16.3069C14.1392 16.3099 14.4072 16.4227 14.6007 16.6217L20.6536 22.8417L43.6681 0.617524C43.9688 0.32643 44.4125 0.24326 44.7995 0.406629C45.1836 0.569998 45.4337 0.947232 45.4337 1.36308V8.9137H43.3496V3.82253L21.3533 25.0605C20.9394 25.4585 20.2814 25.4496 19.8795 25.0367L13.8415 18.8287L1.88764 30.8259Z" fill="white"/>
<path d="M44.3947 0.329407H36.9276V2.40865H44.3947V0.329407Z" fill="white"/>
<path d="M14.3883 22.3056L7.16333 29.3494L8.61991 30.8364L15.8448 23.7927L14.3883 22.3056Z" fill="white"/>
<path d="M40.996 10.839L21.9636 29.394L23.4202 30.8811L42.4526 12.3261L40.996 10.839Z" fill="white"/>
<path d="M43.2821 15.6518L29.1877 29.3927L30.6443 30.8798L44.7387 17.1389L43.2821 15.6518Z" fill="white"/>
<path d="M42.9495 23.2501L36.6487 29.3929L38.1053 30.88L44.4061 24.7372L42.9495 23.2501Z" fill="white"/>
<path d="M17.8733 26.3429L14.6217 29.5129L16.0783 31L19.3298 27.83L17.8733 26.3429Z" fill="white"/>
</svg>
