<svg width="328" height="387" viewBox="0 0 328 387" fill="none" xmlns="http://www.w3.org/2000/svg">
<path d="M196.512 159.611C196.512 163.305 193.543 167 189.089 167L106.687 167H33.9359C29.4816 167 26.5123 163.423 26.5123 159.611C26.5121 147.999 26.5122 14.3425 26.5122 7.6496V7.38946L26.5123 7.3836C26.5161 2.62199 30.5966 6.76518e-05 33.9361 6.76518e-05L188.346 0C193.914 0 196.512 3.69469 196.512 7.38938V159.611Z" fill="#FECA57"/>
<path d="M196.512 159.611C196.512 163.305 193.543 167 189.089 167L106.687 167H33.9359C29.4816 167 26.5123 163.423 26.5123 159.611C26.5121 147.999 26.5122 14.3425 26.5122 7.6496V7.38946L26.5123 7.3836C26.5161 2.62199 30.5966 6.76518e-05 33.9361 6.76518e-05L188.346 0C193.914 0 196.512 3.69469 196.512 7.38938V159.611Z" fill="url(#paint0_linear)"/>
<path d="M321.512 295C321.512 317.644 303.156 336 280.512 336C257.869 336 239.512 317.644 239.512 295C239.512 272.356 257.869 254 280.512 254C303.156 254 321.512 272.356 321.512 295Z" fill="#FF6B6B"/>
<path d="M321.512 295C321.512 317.644 303.156 336 280.512 336C257.869 336 239.512 317.644 239.512 295C239.512 272.356 257.869 254 280.512 254C303.156 254 321.512 272.356 321.512 295Z" fill="url(#paint1_linear)"/>
<path d="M143.878 296.314C145.407 298.163 145.407 300.837 143.878 302.686L76.3657 384.339C74.366 386.758 70.6586 386.758 68.6588 384.339L1.14657 302.686C-0.382192 300.837 -0.382189 298.163 1.14657 296.314L68.6589 214.661C70.6586 212.242 74.366 212.242 76.3657 214.661L143.878 296.314Z" fill="#00D2D3"/>
<mask id="mask0" mask-type="alpha" maskUnits="userSpaceOnUse" x="15" y="68" width="313" height="273">
<path d="M253.693 73.475C251.724 70.0858 248.1 68.0002 244.181 68.0002L98.8437 68.0001C94.9242 68.0001 91.3007 70.0857 89.332 73.475L16.7217 198.475C14.7373 201.891 14.7373 206.109 16.7217 209.525L89.3319 334.525C91.3007 337.914 94.9241 340 98.8436 340L244.181 340C248.1 340 251.724 337.915 253.692 334.525L326.303 209.525C328.287 206.109 328.287 201.891 326.303 198.475L253.693 73.475Z" fill="#FF6B6B"/>
</mask>
<g mask="url(#mask0)">
<path d="M254.641 75.1273C251.673 69.7824 247.518 68.0007 242.77 68.0006C242.77 68.0006 242.77 68.0006 242.77 68.0006C242.763 68.0006 156.907 68 101.513 68C97.168 68 92.5464 68.0568 88.4555 75.1273C63.1755 118.819 20.3205 192.563 17.6062 197.234C17.514 197.393 17.4208 197.545 17.3262 197.702C14.9083 201.723 14.9076 206.273 17.3239 210.293C17.42 210.453 17.4798 210.548 17.5734 210.709C20.4983 215.749 84.9753 326.837 88.4556 332.874C92.0166 339.406 96.9535 340 100.326 340C103.698 340 174.495 339.999 183.414 340C183.417 340 183.415 340 183.418 340C183.517 340 218.177 340 240.396 340C247.518 340 250.747 339.565 254.641 332.874C281.524 286.676 323.945 213.414 325.239 211.179C325.28 211.109 325.29 211.093 325.331 211.023C327.104 208.047 329.372 203.324 324.937 196.28L254.641 75.1273Z" fill="#5F27CD"/>
<path d="M254.641 75.1273C251.673 69.7824 247.518 68.0007 242.77 68.0006C242.77 68.0006 242.77 68.0006 242.77 68.0006C242.763 68.0006 156.907 68 101.513 68C97.168 68 92.5464 68.0568 88.4555 75.1273C63.1755 118.819 20.3205 192.563 17.6062 197.234C17.514 197.393 17.4208 197.545 17.3262 197.702C14.9083 201.723 14.9076 206.273 17.3239 210.293C17.42 210.453 17.4798 210.548 17.5734 210.709C20.4983 215.749 84.9753 326.837 88.4556 332.874C92.0166 339.406 96.9535 340 100.326 340C103.698 340 174.495 339.999 183.414 340C183.417 340 183.415 340 183.418 340C183.517 340 218.177 340 240.396 340C247.518 340 250.747 339.565 254.641 332.874C281.524 286.676 323.945 213.414 325.239 211.179C325.28 211.109 325.29 211.093 325.331 211.023C327.104 208.047 329.372 203.324 324.937 196.28L254.641 75.1273Z" fill="url(#paint2_linear)"/>
<path d="M321.512 295C321.512 317.644 303.156 336 280.512 336C257.869 336 239.512 317.644 239.512 295C239.512 272.356 257.869 254 280.512 254C303.156 254 321.512 272.356 321.512 295Z" fill="#141F29"/>
<path d="M190.512 -2.62268e-07C193.826 -1.17422e-07 196.512 2.68629 196.512 6L196.512 161C196.512 164.314 193.826 167 190.512 167L32.5122 167C29.1985 167 26.5122 164.314 26.5122 161L26.5122 5.99999C26.5122 2.68628 29.1985 -7.31352e-06 32.5122 -7.16867e-06L190.512 -2.62268e-07Z" fill="#141F29"/>
<path d="M143.878 296.314C145.407 298.163 145.407 300.837 143.878 302.686L76.3657 384.34C74.366 386.758 70.6586 386.758 68.6588 384.34L1.14657 302.686C-0.382192 300.837 -0.382189 298.163 1.14657 296.314L68.6589 214.661C70.6586 212.242 74.366 212.242 76.3657 214.661L143.878 296.314Z" fill="#141F29"/>
</g>
<defs>
<linearGradient id="paint0_linear" x1="-6.52272" y1="206.903" x2="176.346" y2="19.4765" gradientUnits="userSpaceOnUse">
<stop offset="0.0353022" stop-color="#F0AC15"/>
<stop offset="1" stop-color="#FECA57"/>
</linearGradient>
<linearGradient id="paint1_linear" x1="239.512" y1="336" x2="329.211" y2="264.026" gradientUnits="userSpaceOnUse">
<stop stop-color="#E74D4D"/>
<stop offset="1" stop-color="#FF6B6B"/>
</linearGradient>
<linearGradient id="paint2_linear" x1="327.512" y1="331.092" x2="-222.501" y2="-190.984" gradientUnits="userSpaceOnUse">
<stop offset="0.0424467" stop-color="#390D8F"/>
<stop offset="0.463718" stop-color="#6D32E1"/>
</linearGradient>
</defs>
</svg>
