<svg width="13" height="13" viewBox="0 0 13 13" fill="none" xmlns="http://www.w3.org/2000/svg">
<path d="M6.98752 9.76718L11.794 4.33481L10.8327 3.24834L6.02622 8.68071L6.98752 9.76718ZM1.21973 4.33481L6.02622 9.76718L6.98752 8.68071L2.18102 3.24834L1.21973 4.33481ZM11.794 4.33481C12.0687 4.02439 12.0687 3.54324 11.794 3.23282C11.5194 2.92239 11.0936 2.92239 10.819 3.23282L11.794 4.33481ZM6.50687 9.22395L6.02622 9.76718C6.30087 10.0776 6.72659 10.0776 7.00125 9.76718L6.50687 9.22395ZM2.18102 3.24834C1.90637 2.93792 1.48065 2.93792 1.20599 3.24834C0.931336 3.55876 0.931336 4.03991 1.20599 4.35033L2.18102 3.24834Z" fill="#7f7f7f"/>
</svg>
