<svg width="144" height="52" viewBox="0 0 144 52" fill="none" xmlns="http://www.w3.org/2000/svg">
<g clip-path="url(#clip0)">
<path d="M73.008 36C72.067 36 71.151 35.8454 70.26 35.5351C69.369 35.2258 68.616 34.8077 68 34.2837L70.437 31.7493C70.729 32.0595 71.109 32.322 71.58 32.5349C72.051 32.7497 72.521 32.8566 72.992 32.8566C73.586 32.8566 73.883 32.679 73.883 32.3268C73.883 32.1235 73.754 31.9574 73.496 31.8295C73.238 31.7015 72.667 31.4982 71.782 31.2195C70.829 30.9207 70.079 30.5198 69.53 30.0167C68.981 29.5146 68.707 28.8073 68.707 27.8985C68.707 27.2246 68.855 26.6289 69.152 26.1096C69.448 25.5913 69.843 25.1818 70.337 24.883C70.83 24.5842 71.359 24.3618 71.925 24.2176C72.491 24.0735 73.082 24 73.698 24C74.493 24 75.297 24.1499 76.11 24.4496C76.923 24.7493 77.631 25.1608 78.236 25.6848L75.749 28.1076C75.491 27.8088 75.169 27.5701 74.783 27.3935C74.397 27.2169 74.035 27.1291 73.699 27.1291C73.049 27.1291 72.724 27.3009 72.724 27.6427C72.724 27.803 72.802 27.9233 72.959 28.0035C73.116 28.0837 73.43 28.1982 73.9 28.3481C74.225 28.455 74.483 28.5381 74.673 28.5972C74.863 28.6564 75.118 28.749 75.438 28.8779C75.757 29.0068 76.015 29.1299 76.211 29.2473C76.407 29.3647 76.625 29.5194 76.866 29.7122C77.107 29.9041 77.295 30.1026 77.429 30.305C77.563 30.5083 77.678 30.7527 77.773 31.0352C77.868 31.3188 77.916 31.6204 77.916 31.9421C77.916 33.225 77.5 34.1538 76.454 34.9337C75.479 35.6449 74.33 36 73.008 36Z" fill="#002838"/>
<path d="M83.629 29.2198H83.545L83.7301 36H80V24H85.226L87.377 30.4574H87.461L89.326 24H94.721V36H90.839L90.956 29.2541L90.8551 29.237L88.637 36H85.8141L83.629 29.2198Z" fill="#002838"/>
<path d="M97 36L101.689 24H105.94L110.578 36H106.225L105.603 34.2379H101.822L101.234 36H97ZM104.714 31.1524L103.756 28.1859L102.781 31.1524H104.714Z" fill="#002838"/>
<path d="M112 36V24H117.125C117.752 24 118.335 24.0625 118.873 24.1866C119.411 24.3107 119.917 24.5144 120.394 24.7958C120.87 25.0783 121.245 25.4827 121.52 26.0082C121.794 26.5337 121.932 27.1642 121.932 27.8985C121.932 28.6217 121.75 29.2652 121.386 29.83C121.022 30.3959 120.51 30.8306 119.848 31.1352L122.873 36H118.269L115.983 31.7112H115.865V36H112ZM115.832 27.1349V29.0675H116.622C117.552 29.0675 118.017 28.7346 118.017 28.0679C118.017 27.4466 117.608 27.1349 116.79 27.1349H115.832Z" fill="#002838"/>
<path d="M130.924 27.407V36H126.924V27.407H124V24H133.848V27.407H130.924Z" fill="#002838"/>
<path d="M68 51.0001V39H76.184V42.4291H71.764V43.4541H75.915V46.5621H71.764V47.6711H76.47V50.9981H68V51.0001Z" fill="#002838"/>
<path d="M87.957 51L85.806 47.521L83.739 51H79L83.252 44.799L79 39H84L85.923 42.228L87.721 39.103H92.427L88.461 44.749L92.847 51H87.957Z" fill="#002838"/>
<path d="M100.108 47.067H98.982V51H95V39H100.108C100.758 39 101.357 39.066 101.906 39.201C102.455 39.336 102.968 39.549 103.444 39.84C103.92 40.132 104.296 40.546 104.57 41.083C104.844 41.621 104.982 42.26 104.982 42.999C104.982 43.705 104.845 44.327 104.57 44.864C104.296 45.402 103.925 45.828 103.461 46.141C102.996 46.455 102.481 46.688 101.915 46.838C101.349 46.99 100.747 47.067 100.108 47.067ZM99.822 42.109H98.982V44.025H99.822C100.158 44.025 100.444 43.941 100.679 43.773C100.914 43.605 101.032 43.359 101.032 43.034C101.032 42.417 100.629 42.109 99.822 42.109Z" fill="#002838"/>
<path d="M106 44.9365C106 43.1505 106.611 41.7148 107.833 40.6285C109.056 39.5432 110.609 39 112.491 39C114.374 39 115.929 39.5432 117.158 40.6285C118.386 41.7148 119 43.1505 119 44.9365C119 46.733 118.384 48.1926 117.15 49.3161C115.917 50.4387 114.364 51 112.492 51C110.62 51 109.071 50.4387 107.843 49.3161C106.614 48.1926 106 46.733 106 44.9365ZM110.179 44.9365C110.179 45.6735 110.397 46.2806 110.832 46.7569C111.267 47.2323 111.82 47.4709 112.492 47.4709C113.153 47.4709 113.703 47.2323 114.144 46.7569C114.585 46.2806 114.805 45.6735 114.805 44.9365C114.805 44.2091 114.588 43.6211 114.152 43.1715C113.717 42.7219 113.164 42.4976 112.492 42.4976C111.82 42.4976 111.267 42.7219 110.832 43.1715C110.397 43.6211 110.179 44.2091 110.179 44.9365Z" fill="#002838"/>
<path d="M122 50.898V39H127.125C127.752 39 128.335 39.062 128.873 39.185C129.411 39.308 129.917 39.51 130.394 39.789C130.87 40.069 131.245 40.47 131.52 40.991C131.794 41.512 131.932 42.137 131.932 42.865C131.932 43.582 131.75 44.22 131.386 44.78C131.022 45.341 130.51 45.772 129.848 46.074L132.873 50.897H128.269L125.983 46.645H125.865V51H122V50.898ZM125.831 42.109V44.025H126.621C127.551 44.025 128.016 43.695 128.016 43.034C128.016 42.418 127.607 42.109 126.789 42.109H125.831Z" fill="#002838"/>
<path d="M141 42.378V51H137V42.378H134V39H144V42.378H141Z" fill="#002838"/>
<path d="M51.084 29.7458L44.584 18.5L48 13L42.7849 12L41.167 12.5728H20.722L14 24H8V31L10.806 29.7458L20.722 47.3918L33.221 47.3418L36 51L38.925 47.3797L40.55 47.3918L51.084 29.7458Z" fill="#002838"/>
<path d="M30.881 42.864C38.2015 42.864 44.136 36.9295 44.136 29.609C44.136 22.2885 38.2015 16.354 30.881 16.354C23.5604 16.354 17.626 22.2885 17.626 29.609C17.626 36.9295 23.5604 42.864 30.881 42.864Z" fill="url(#paint0_linear)"/>
<path d="M8 24L0.880576 37.0561C0.655576 37.4621 0.668575 38.1201 0.909575 38.5171L8 51L19 42L8 24Z" fill="#353E8E"/>
<path d="M30.5931 37.6662L16.2551 37.5732L8 51H24L31.3191 38.8682C31.6931 38.1912 31.3671 37.6502 30.5931 37.6662Z" fill="#6C4896"/>
<path d="M36 51L51.346 51C51.81 51.001 52.46 50.8661 52.762 50.235L60 37L45.5 36L36 51Z" fill="#353E8E"/>
<path d="M36.6329 24.9731L44.5359 37.5761L60 37L52 24L37.3359 23.8101C36.5629 23.8081 36.2459 24.3031 36.6329 24.9731Z" fill="#6C4896"/>
<path d="M48 13L39.5489 0.811079C39.3009 0.418079 38.8399 -0.0589219 38.1499 0.0210781L23 0L24 14.5L48 13Z" fill="#353E8E"/>
<path d="M25.2481 27.389L32 14L23 0L15.6001 14.342L23.8901 27.417C24.3021 28.073 24.8901 28.075 25.2481 27.389Z" fill="#6C4896"/>
</g>
<defs>
<linearGradient id="paint0_linear" x1="18.0303" y1="29.6084" x2="44.5666" y2="29.6084" gradientUnits="userSpaceOnUse">
<stop stop-color="#EC4761"/>
<stop offset="0.141" stop-color="#EC4847"/>
<stop offset="1" stop-color="#FDBB00"/>
</linearGradient>
<clipPath id="clip0">
<rect width="144" height="52" fill="white"/>
</clipPath>
</defs>
</svg>
