<svg width="144" height="52" viewBox="0 0 144 52" fill="none" xmlns="http://www.w3.org/2000/svg">
<path d="M72.648 35.8127C71.707 35.8127 70.791 35.6507 69.9 35.3257C69.009 35.0017 68.256 34.5637 67.64 34.0147L70.077 31.3597C70.369 31.6847 70.749 31.9597 71.22 32.1827C71.691 32.4077 72.161 32.5197 72.632 32.5197C73.226 32.5197 73.523 32.3337 73.523 31.9647C73.523 31.7517 73.394 31.5777 73.136 31.4437C72.878 31.3097 72.307 31.0967 71.422 30.8047C70.469 30.4917 69.719 30.0717 69.17 29.5447C68.621 29.0187 68.347 28.2777 68.347 27.3257C68.347 26.6197 68.495 25.9957 68.792 25.4517C69.088 24.9087 69.483 24.4797 69.977 24.1667C70.47 23.8537 70.999 23.6207 71.565 23.4697C72.131 23.3187 72.722 23.2417 73.338 23.2417C74.133 23.2417 74.937 23.3987 75.75 23.7127C76.563 24.0267 77.271 24.4577 77.876 25.0067L75.389 27.5447C75.131 27.2317 74.809 26.9817 74.423 26.7967C74.037 26.6117 73.675 26.5197 73.339 26.5197C72.689 26.5197 72.364 26.6997 72.364 27.0577C72.364 27.2257 72.442 27.3517 72.599 27.4357C72.756 27.5197 73.07 27.6397 73.54 27.7967C73.865 27.9087 74.123 27.9957 74.313 28.0577C74.503 28.1197 74.758 28.2167 75.078 28.3517C75.397 28.4867 75.655 28.6157 75.851 28.7387C76.047 28.8617 76.265 29.0237 76.506 29.2257C76.747 29.4267 76.935 29.6347 77.069 29.8467C77.203 30.0597 77.318 30.3157 77.413 30.6117C77.508 30.9087 77.556 31.2247 77.556 31.5617C77.556 32.9057 77.069 33.9507 76.094 34.6957C75.119 35.4407 73.97 35.8127 72.648 35.8127Z" fill="#002838"/>
<path d="M83.721 28.7546H83.637L83.8221 35.4766H80.092V23.5796H85.318L87.469 29.9816H87.553L89.418 23.5796H94.813V35.4766H90.931L91.048 28.7886L90.9471 28.7716L88.729 35.4766H85.9061L83.721 28.7546Z" fill="#002838"/>
<path d="M96.62 35.4766L101.309 23.5796H105.56L110.198 35.4766H105.845L105.223 33.7296H101.442L100.854 35.4766H96.62ZM104.334 30.6706L103.376 27.7296L102.401 30.6706H104.334Z" fill="#002838"/>
<path d="M112.007 35.4766V23.5796H117.132C117.759 23.5796 118.342 23.6416 118.88 23.7646C119.418 23.8876 119.924 24.0896 120.401 24.3686C120.877 24.6486 121.252 25.0496 121.527 25.5706C121.801 26.0916 121.939 26.7166 121.939 27.4446C121.939 28.1616 121.757 28.7996 121.393 29.3596C121.029 29.9206 120.517 30.3516 119.855 30.6536L122.88 35.4766H118.276L115.99 31.2246H115.872V35.4766H112.007ZM115.839 26.6876V28.6036H116.629C117.559 28.6036 118.024 28.2736 118.024 27.6126C118.024 26.9966 117.615 26.6876 116.797 26.6876H115.839Z" fill="#002838"/>
<path d="M130.778 26.9576V35.4776H126.778V26.9576H123.854V23.5796H133.702V26.9576H130.778Z" fill="#002838"/>
<path d="M68.75 51.4947V39.5967H76.934V42.9237H72.514V43.9487H76.665V47.0567H72.514V48.1657H77.22V51.4927H68.75V51.4947Z" fill="#002838"/>
<path d="M87.742 51.4947L85.591 48.0157L83.524 51.4947H78.785L83.037 45.2937L79.003 39.5977H83.826L85.708 42.7227L87.506 39.5977H92.212L88.246 45.2437L92.632 51.4947H87.742V51.4947Z" fill="#002838"/>
<path d="M99.583 47.6637H98.457V51.4947H94.475V39.5967H99.583C100.233 39.5967 100.832 39.6627 101.381 39.7977C101.93 39.9327 102.443 40.1457 102.919 40.4367C103.395 40.7287 103.771 41.1427 104.045 41.6797C104.319 42.2177 104.457 42.8567 104.457 43.5957C104.457 44.3017 104.32 44.9237 104.045 45.4607C103.771 45.9987 103.4 46.4247 102.936 46.7377C102.471 47.0517 101.956 47.2847 101.39 47.4347C100.824 47.5867 100.222 47.6637 99.583 47.6637ZM99.297 42.7057H98.457V44.6217H99.297C99.633 44.6217 99.919 44.5377 100.154 44.3697C100.389 44.2017 100.507 43.9557 100.507 43.6307C100.507 43.0137 100.104 42.7057 99.297 42.7057Z" fill="#002838"/>
<path d="M106.29 45.4788C106.29 43.6078 106.912 42.1038 108.155 40.9658C109.399 39.8288 110.979 39.2598 112.894 39.2598C114.81 39.2598 116.392 39.8288 117.642 40.9658C118.891 42.1038 119.516 43.6078 119.516 45.4788C119.516 47.3608 118.889 48.8898 117.634 50.0668C116.379 51.2428 114.799 51.8308 112.895 51.8308C110.99 51.8308 109.414 51.2428 108.165 50.0668C106.915 48.8898 106.29 47.3608 106.29 45.4788ZM110.542 45.4788C110.542 46.2508 110.763 46.8868 111.206 47.3858C111.648 47.8838 112.211 48.1338 112.895 48.1338C113.567 48.1338 114.127 47.8838 114.576 47.3858C115.024 46.8868 115.248 46.2508 115.248 45.4788C115.248 44.7168 115.027 44.1008 114.584 43.6298C114.141 43.1588 113.578 42.9238 112.895 42.9238C112.211 42.9238 111.648 43.1588 111.206 43.6298C110.763 44.1008 110.542 44.7168 110.542 45.4788Z" fill="#002838"/>
<path d="M122.067 51.4947V39.5967H127.192C127.819 39.5967 128.402 39.6587 128.94 39.7817C129.478 39.9047 129.984 40.1067 130.461 40.3857C130.937 40.6657 131.312 41.0667 131.587 41.5877C131.861 42.1087 131.999 42.7337 131.999 43.4617C131.999 44.1787 131.817 44.8167 131.453 45.3767C131.089 45.9377 130.577 46.3687 129.915 46.6707L132.94 51.4937H128.336L126.05 47.2417H125.932V51.4937H122.067V51.4947ZM125.898 42.7057V44.6217H126.688C127.618 44.6217 128.083 44.2917 128.083 43.6307C128.083 43.0147 127.674 42.7057 126.856 42.7057H125.898Z" fill="#002838"/>
<path d="M140.838 42.9747V51.4947H136.838V42.9747H133.914V39.5967H143.762V42.9747H140.838Z" fill="#002838"/>
<path d="M51.299 29.2458L44.871 18.2078L47.637 13.4478L42.229 13.5638L41.382 12.0728H20.937L14.134 23.7608L14.133 23.7598L8.21503 23.7878L11.166 28.9907L11.021 29.2458L20.937 46.8918L33.436 46.8418L36.278 51.4077L39.14 46.8797L40.765 46.8918L51.299 29.2458Z" fill="#002838"/>
<path d="M30.881 42.864C38.2015 42.864 44.136 36.9295 44.136 29.609C44.136 22.2885 38.2015 16.354 30.881 16.354C23.5604 16.354 17.626 22.2885 17.626 29.609C17.626 36.9295 23.5604 42.864 30.881 42.864Z" fill="url(#paint0_linear)"/>
<path d="M8.22858 23.7881L0.880576 37.0561C0.655576 37.4621 0.668575 38.1201 0.909575 38.5171L8.62258 51.4841L16.3276 37.6211L8.22858 23.7881Z" fill="#353E8E"/>
<path d="M30.593 37.6662L16.255 37.5732L8.54999 51.4832L24.319 51.4702L31.319 38.8682C31.693 38.1912 31.367 37.6502 30.593 37.6662Z" fill="#6C4896"/>
<path d="M36.278 51.4078L51.346 51.3818C51.81 51.3828 52.46 51.2488 52.762 50.6218L60.234 37.6198L44.537 37.5498L36.278 51.4078Z" fill="#353E8E"/>
<path d="M36.633 24.9731L44.536 37.5761L60.233 37.6451L51.872 23.8331L37.336 23.8101C36.563 23.8081 36.246 24.3031 36.633 24.9731Z" fill="#6C4896"/>
<path d="M47.637 13.525L39.549 0.811001C39.301 0.418001 38.84 -0.0590001 38.15 0.0209999L23.159 0L31.512 13.967L47.637 13.525Z" fill="#353E8E"/>
<path d="M25.248 27.389L31.663 13.967L23.31 0L15.6 14.342L23.89 27.417C24.302 28.073 24.89 28.075 25.248 27.389Z" fill="#6C4896"/>
<defs>
<linearGradient id="paint0_linear" x1="18.0303" y1="29.6084" x2="44.5666" y2="29.6084" gradientUnits="userSpaceOnUse">
<stop stop-color="#EC4761"/>
<stop offset="0.141" stop-color="#EC4847"/>
<stop offset="1" stop-color="#FDBB00"/>
</linearGradient>
</defs>
</svg>
