<svg width="137" height="50" viewBox="0 0 137 50" fill="none" xmlns="http://www.w3.org/2000/svg">
<path d="M69.2959 26.269C68.4086 26.269 67.5401 26.118 66.7 25.8065C65.8599 25.495 65.1519 25.0891 64.5667 24.5699L66.8699 22.059C67.1436 22.3705 67.5024 22.6253 67.946 22.833C68.3897 23.0407 68.8333 23.154 69.277 23.154C69.8339 23.154 70.1171 22.9746 70.1171 22.6348C70.1171 22.4366 69.9944 22.2666 69.749 22.1439C69.5035 22.0212 68.9655 21.8135 68.1348 21.5398C67.238 21.2472 66.5301 20.8507 66.0109 20.3504C65.4917 19.8501 65.2369 19.1516 65.2369 18.2548C65.2369 17.5846 65.3784 16.9994 65.6616 16.4896C65.9448 15.9799 66.313 15.574 66.7755 15.2719C67.238 14.9793 67.7383 14.7527 68.2764 14.6112C68.8145 14.4696 69.3714 14.394 69.9472 14.394C70.7024 14.394 71.4575 14.5451 72.2221 14.8377C72.9867 15.1303 73.657 15.5457 74.2328 16.0554L71.8823 18.4531C71.6369 18.1604 71.3348 17.9244 70.9667 17.7451C70.5985 17.5657 70.2587 17.4808 69.9472 17.4808C69.3336 17.4808 69.0316 17.6507 69.0316 17.9905C69.0316 18.151 69.1071 18.2643 69.2581 18.3492C69.4091 18.4247 69.7018 18.538 70.1454 18.689C70.4569 18.7929 70.6929 18.8778 70.8723 18.9345C71.0516 18.9911 71.2971 19.0855 71.5897 19.2082C71.8917 19.3309 72.1372 19.4536 72.3165 19.5764C72.5053 19.6896 72.7036 19.8501 72.9395 20.0389C73.1661 20.2277 73.3454 20.4259 73.4682 20.6242C73.5909 20.8224 73.7041 21.0678 73.7891 21.3416C73.8741 21.6248 73.9213 21.9174 73.9213 22.2383C73.9213 23.5032 73.4587 24.4944 72.5431 25.1929C71.6274 25.8914 70.5513 26.269 69.2959 26.269Z" fill="#141F29"/>
<path d="M79.7548 19.605H79.6699L79.8398 25.9484H76.3188V14.7153H81.2557L83.2853 20.7567H83.3608L85.126 14.7153H90.2139V25.9484H86.5608L86.6741 19.6333L86.5797 19.6145L84.4841 25.9484H81.8221L79.7548 19.605Z" fill="#141F29"/>
<path d="M91.9319 25.9577L96.359 14.7246H100.371L104.751 25.9577H100.645L100.059 24.3058H96.4912L95.9343 25.9577H91.9319ZM99.2098 21.4173L98.3036 18.642L97.388 21.4173H99.2098Z" fill="#141F29"/>
<path d="M106.459 25.9577V14.7246H111.302C111.897 14.7246 112.444 14.7812 112.954 14.8945C113.464 15.0078 113.935 15.206 114.389 15.4609C114.842 15.7252 115.191 16.1028 115.455 16.5936C115.71 17.0845 115.842 17.6792 115.842 18.3588C115.842 19.0385 115.672 19.6426 115.323 20.1712C114.983 20.6999 114.492 21.1058 113.869 21.3889L116.72 25.9388H112.378L110.216 21.927H110.103V25.9388H106.459V25.9577ZM110.075 17.6603V19.4727H110.82C111.698 19.4727 112.142 19.1612 112.142 18.5382C112.142 17.9529 111.755 17.6698 110.981 17.6698H110.075V17.6603Z" fill="#141F29"/>
<path d="M124.178 17.9152V25.9577H120.402V17.9152H117.645V14.7246H126.943V17.9152H124.178Z" fill="#141F29"/>
<path d="M65.6239 41.0706V29.8469H73.3455V32.9903H69.1732V33.9626H73.0906V36.8983H69.1732V37.9461H73.6192V41.0894H65.6239V41.0706Z" fill="#141F29"/>
<path d="M83.5498 41.0702L81.5203 37.7853L79.5663 41.0702H75.0919L79.1037 35.2177L75.2996 29.8372H79.8495L81.6241 32.7917L83.3232 29.8372H87.7693L84.0217 35.1705L88.1657 41.0702H83.5498Z" fill="#141F29"/>
<path d="M94.7261 37.4552H93.6594V41.0706H89.9025V29.8469H94.7261C95.3397 29.8469 95.906 29.913 96.4252 30.0357C96.9444 30.1584 97.4258 30.3661 97.8789 30.6398C98.332 30.9136 98.6813 31.3101 98.9456 31.8104C99.2004 32.3201 99.3326 32.9242 99.3326 33.6227C99.3326 34.293 99.2004 34.8782 98.9456 35.3879C98.6907 35.8977 98.3414 36.2941 97.8978 36.5962C97.4636 36.8888 96.9727 37.1154 96.4347 37.257C95.8966 37.3891 95.3302 37.4552 94.7261 37.4552ZM94.4523 32.7826H93.6594V34.595H94.4523C94.7733 34.595 95.0376 34.5195 95.2641 34.359C95.4907 34.1986 95.5945 33.972 95.5945 33.6605C95.5945 33.0658 95.2169 32.7826 94.4523 32.7826Z" fill="#141F29"/>
<path d="M101.06 35.397C101.06 33.6318 101.645 32.2065 102.825 31.1398C103.996 30.0637 105.487 29.5256 107.3 29.5256C109.112 29.5256 110.604 30.0637 111.784 31.1398C112.963 32.2159 113.549 33.6318 113.549 35.397C113.549 37.1717 112.954 38.6159 111.774 39.7298C110.594 40.8437 109.103 41.3912 107.3 41.3912C105.506 41.3912 104.015 40.8342 102.835 39.7298C101.645 38.6159 101.06 37.1717 101.06 35.397ZM105.072 35.397C105.072 36.1239 105.28 36.728 105.695 37.2C106.11 37.672 106.648 37.908 107.29 37.908C107.923 37.908 108.451 37.672 108.876 37.2C109.301 36.728 109.509 36.1333 109.509 35.397C109.509 34.6796 109.301 34.0944 108.886 33.6507C108.47 33.2071 107.932 32.9805 107.29 32.9805C106.648 32.9805 106.11 33.2071 105.695 33.6507C105.28 34.0944 105.072 34.6796 105.072 35.397Z" fill="#141F29"/>
<path d="M115.956 41.0706V29.8469H120.798C121.393 29.8469 121.94 29.9036 122.45 30.0168C122.96 30.1301 123.432 30.3283 123.885 30.5832C124.338 30.8475 124.687 31.2251 124.952 31.716C125.206 32.2068 125.339 32.8015 125.339 33.4812C125.339 34.1608 125.169 34.7649 124.819 35.2936C124.48 35.8222 123.989 36.2281 123.366 36.5113L126.217 41.0611H121.874L119.713 37.0493H119.599V41.0611H115.956V41.0706ZM119.571 32.7826V34.595H120.317C121.195 34.595 121.638 34.2835 121.638 33.6605C121.638 33.0753 121.251 32.7921 120.477 32.7921H119.571V32.7826Z" fill="#141F29"/>
<path d="M133.674 33.0281V41.0706H129.898V33.0281H127.141V29.8469H136.439V33.0375H133.674V33.0281Z" fill="#141F29"/>
<path d="M38.3059 44.9785L48.3213 28.2138L38.8912 11.8928H19.4646L10.0344 28.2138L19.4646 44.9785H38.3059Z" fill="#212F3E"/>
<path d="M38.8439 31.8293L41.4587 36.3131L33.8504 49.4153L31.3395 44.9315L38.8439 31.8293Z" fill="#141F29"/>
<path d="M57.808 36.3132L49.0575 49.4154H33.8503L41.4586 36.3132H57.808Z" fill="#341E97"/>
<path d="M20.8236 35.9072L15.1504 36.0205L7.37219 23.0222L12.9982 22.9939L20.8236 35.9072Z" fill="#141F29"/>
<path d="M7.8254 49.2453L0 36.332L7.3723 23.0222L15.1505 36.0299L7.8254 49.2453Z" fill="#341E97"/>
<path d="M27.2236 18.2553L29.593 13.7715L44.734 13.3279L42.3175 17.7267L27.2236 18.2553Z" fill="#141F29"/>
<path d="M41.2413 28.6106C41.2413 21.6536 35.6059 16.0088 28.6489 16.0088C21.692 16.0088 16.0471 21.6536 16.0471 28.6106C16.0471 35.5676 21.692 41.2124 28.6489 41.2124C35.6059 41.203 41.2413 35.5676 41.2413 28.6106Z" fill="url(#paint0_linear)"/>
<path d="M21.626 0.924123L36.7104 0.395508L44.734 13.3277L29.593 13.7714L21.626 0.924123Z" fill="#341E97"/>
<path d="M49.0669 23.2112L57.8174 36.3133H41.4586L33.8503 23.2112H49.0669Z" fill="#5F27CD"/>
<path d="M22.9287 49.0377L7.82544 49.2548L15.1505 36.0394L30.301 35.7373L22.9287 49.0377Z" fill="#5F27CD"/>
<path d="M14.4426 14.2055L21.6167 0.924072L29.5837 13.7619L22.4663 27.1377L14.4426 14.2055Z" fill="#5F27CD"/>
<defs>
<linearGradient id="paint0_linear" x1="45.2923" y1="28.6098" x2="11.7062" y2="28.6098" gradientUnits="userSpaceOnUse">
<stop offset="0.0260417" stop-color="#FFD338" stop-opacity="0.94"/>
<stop offset="0.864583" stop-color="#EE5353"/>
</linearGradient>
</defs>
</svg>
