<svg width="21" height="34" viewBox="0 0 21 34" fill="none" xmlns="http://www.w3.org/2000/svg">
<path d="M10.2949 25.8692C8.1116 25.8692 6.33534 27.6454 6.33534 29.8287C6.33534 32.012 8.1116 33.7883 10.2949 33.7883C12.4782 33.7883 14.2545 32.012 14.2545 29.8287C14.2545 27.6454 12.4782 25.8692 10.2949 25.8692ZM10.2949 31.8085C9.20325 31.8085 8.31512 30.9204 8.31512 29.8287C8.31512 28.7371 9.20325 27.8489 10.2949 27.8489C11.3866 27.8489 12.2747 28.7371 12.2747 29.8287C12.2747 30.9204 11.3866 31.8085 10.2949 31.8085Z" fill="#C8D6E5"/>
<path d="M10.2949 0C4.61825 0 0 4.61825 0 10.2949V11.2848H7.91914V10.2949C7.91914 8.98486 8.98486 7.91914 10.2949 7.91914C11.6049 7.91914 12.6706 8.98486 12.6706 10.2949C12.6706 10.993 12.3642 11.6537 11.8299 12.1078L6.33531 16.7792V23.8894H14.2545V20.4408L16.9586 18.1418C19.2662 16.1809 20.5898 13.3209 20.5898 10.2949C20.5898 4.61825 15.9715 0 10.2949 0ZM15.6764 16.6333L12.2747 19.5254V21.9096H8.3151V17.6946L13.112 13.6162C14.0897 12.7855 14.6504 11.5749 14.6504 10.2949C14.6504 7.89321 12.6966 5.93936 10.2949 5.93936C8.2336 5.93936 6.50221 7.37866 6.0528 9.30499H2.03832C2.52937 5.18499 6.04488 1.97979 10.2949 1.97979C14.8799 1.97979 18.61 5.7099 18.61 10.2949C18.61 12.7389 17.5408 15.049 15.6764 16.6333Z" fill="#C8D6E5"/>
</svg>
