<svg width="43" height="51" viewBox="0 0 43 51" fill="none" xmlns="http://www.w3.org/2000/svg">
<path d="M42 37.25L42 13.75L21.5 2L1 13.75L1 37.25L21.5 49L42 37.25Z" stroke="#C8D6E5" stroke-width="2" stroke-miterlimit="10"/>
<path d="M20.616 33.688C19.464 33.608 18.528 33.456 17.808 33.232C17.104 32.992 16.576 32.776 16.224 32.584L17.04 30.304C17.552 30.56 18.168 30.792 18.888 31C19.624 31.208 20.456 31.312 21.384 31.312C22.488 31.312 23.248 31.152 23.664 30.832C24.096 30.496 24.312 30.056 24.312 29.512C24.312 29.144 24.224 28.824 24.048 28.552C23.872 28.28 23.624 28.04 23.304 27.832C22.984 27.624 22.6 27.432 22.152 27.256C21.72 27.08 21.24 26.896 20.712 26.704C20.216 26.528 19.72 26.328 19.224 26.104C18.744 25.88 18.304 25.608 17.904 25.288C17.52 24.952 17.208 24.552 16.968 24.088C16.728 23.624 16.608 23.056 16.608 22.384C16.608 21.28 16.936 20.344 17.592 19.576C18.248 18.792 19.256 18.288 20.616 18.064V15.376H23.112V17.968C23.88 18.032 24.568 18.144 25.176 18.304C25.784 18.448 26.264 18.592 26.616 18.736L26.016 21.112C25.552 20.936 25 20.768 24.36 20.608C23.736 20.448 23.016 20.368 22.2 20.368C21.336 20.368 20.688 20.528 20.256 20.848C19.824 21.152 19.608 21.576 19.608 22.12C19.608 22.44 19.672 22.712 19.8 22.936C19.928 23.144 20.12 23.336 20.376 23.512C20.632 23.672 20.944 23.832 21.312 23.992C21.68 24.136 22.096 24.288 22.56 24.448C23.216 24.704 23.832 24.976 24.408 25.264C25 25.536 25.512 25.864 25.944 26.248C26.376 26.616 26.712 27.056 26.952 27.568C27.208 28.08 27.336 28.688 27.336 29.392C27.336 30.448 27.008 31.36 26.352 32.128C25.696 32.896 24.616 33.392 23.112 33.616V36.616H20.616V33.688Z" fill="#C8D6E5"/>
</svg>
