<svg width="45" height="45" viewBox="0 0 45 45" fill="none" xmlns="http://www.w3.org/2000/svg">
<path d="M38.4099 6.59004C34.1602 2.34044 28.51 0 22.5 0C16.49 0 10.8396 2.34044 6.59004 6.59004C2.34035 10.8397 0 16.49 0 22.5C0 28.51 2.34035 34.1602 6.59004 38.4099C10.8397 42.6596 16.49 45 22.5 45C28.51 45 34.1602 42.6596 38.4099 38.4099C42.6596 34.1602 45 28.51 45 22.5C45 16.49 42.6596 10.8398 38.4099 6.59004ZM22.5 42.3633C11.5473 42.3633 2.63672 33.4527 2.63672 22.5C2.63672 11.5473 11.5473 2.63672 22.5 2.63672C33.4527 2.63672 42.3633 11.5473 42.3633 22.5C42.3633 33.4527 33.4527 42.3633 22.5 42.3633Z" fill="#5F27CD"/>
<path d="M33.2495 15.2805C32.7347 14.7658 31.8999 14.7658 31.3851 15.2806L19.7432 26.9225L13.6149 20.7941C13.1001 20.2794 12.2653 20.2794 11.7505 20.7941C11.2356 21.3089 11.2356 22.1437 11.7505 22.6586L18.811 29.7191C19.0684 29.9765 19.4058 30.1052 19.7431 30.1052C20.0805 30.1052 20.418 29.9764 20.6753 29.7191L33.2495 17.1449C33.7643 16.6301 33.7643 15.7954 33.2495 15.2805Z" fill="#5F27CD"/>
</svg>
