<svg width="770" height="615" viewBox="0 0 770 615" fill="none" xmlns="http://www.w3.org/2000/svg">
<path d="M409.512 262.611C409.512 266.305 406.543 270 402.089 270H319.687H246.936C242.482 270 239.512 266.423 239.512 262.611C239.512 250.999 239.512 117.342 239.512 110.65V110.389L239.512 110.384C239.516 105.622 243.597 103 246.936 103L401.346 103C406.914 103 409.512 106.695 409.512 110.389V262.611Z" fill="#FECA57"/>
<path d="M534.512 398C534.512 420.644 516.156 439 493.512 439C470.869 439 452.512 420.644 452.512 398C452.512 375.356 470.869 357 493.512 357C516.156 357 534.512 375.356 534.512 398Z" fill="#FF6B6B"/>
<path d="M534.512 398C534.512 420.644 516.156 439 493.512 439C470.869 439 452.512 420.644 452.512 398C452.512 375.356 470.869 357 493.512 357C516.156 357 534.512 375.356 534.512 398Z" fill="url(#paint0_linear)"/>
<path d="M356.878 399.314C358.407 401.163 358.407 403.837 356.878 405.686L289.366 487.339C287.366 489.758 283.659 489.758 281.659 487.339L214.147 405.686C212.618 403.837 212.618 401.163 214.147 399.314L281.659 317.661C283.659 315.242 287.366 315.242 289.366 317.661L356.878 399.314Z" fill="#00D2D3"/>
<mask id="mask0" mask-type="alpha" maskUnits="userSpaceOnUse" x="228" y="171" width="313" height="272">
<path d="M466.693 176.475C464.724 173.086 461.1 171 457.181 171L311.844 171C307.924 171 304.301 173.086 302.332 176.475L229.722 301.475C227.737 304.891 227.737 309.109 229.722 312.525L302.332 437.525C304.301 440.914 307.924 443 311.844 443H457.181C461.1 443 464.724 440.915 466.692 437.525L539.303 312.525C541.287 309.109 541.287 304.891 539.303 301.475L466.693 176.475Z" fill="#FF6B6B"/>
</mask>
<g mask="url(#mask0)">
<path d="M467.641 178.127C464.673 172.782 460.518 171.001 455.77 171.001C455.763 171.001 369.907 171 314.513 171C310.168 171 305.546 171.057 301.455 178.127C276.175 221.819 233.32 295.563 230.606 300.234C230.514 300.393 230.421 300.545 230.326 300.702C227.908 304.723 227.908 309.273 230.324 313.293C230.42 313.453 230.48 313.548 230.573 313.709C233.498 318.749 297.975 429.837 301.456 435.874C305.017 442.406 309.953 443 313.326 443C316.698 443 387.495 442.999 396.414 443C396.417 443 396.415 443 396.418 443C396.517 443 431.177 443 453.396 443C460.518 443 463.747 442.565 467.641 435.874C494.524 389.676 536.945 316.414 538.239 314.179C538.28 314.109 538.29 314.093 538.331 314.023C540.104 311.047 542.372 306.324 537.937 299.28L467.641 178.127Z" fill="#5F27CD"/>
<path d="M467.641 178.127C464.673 172.782 460.518 171.001 455.77 171.001C455.763 171.001 369.907 171 314.513 171C310.168 171 305.546 171.057 301.455 178.127C276.175 221.819 233.32 295.563 230.606 300.234C230.514 300.393 230.421 300.545 230.326 300.702C227.908 304.723 227.908 309.273 230.324 313.293C230.42 313.453 230.48 313.548 230.573 313.709C233.498 318.749 297.975 429.837 301.456 435.874C305.017 442.406 309.953 443 313.326 443C316.698 443 387.495 442.999 396.414 443C396.417 443 396.415 443 396.418 443C396.517 443 431.177 443 453.396 443C460.518 443 463.747 442.565 467.641 435.874C494.524 389.676 536.945 316.414 538.239 314.179C538.28 314.109 538.29 314.093 538.331 314.023C540.104 311.047 542.372 306.324 537.937 299.28L467.641 178.127Z" fill="url(#paint1_linear)"/>
<path d="M534.512 398C534.512 420.644 516.156 439 493.512 439C470.869 439 452.512 420.644 452.512 398C452.512 375.356 470.869 357 493.512 357C516.156 357 534.512 375.356 534.512 398Z" fill="#141F29"/>
<path d="M403.512 103C406.826 103 409.512 105.686 409.512 109V264C409.512 267.314 406.826 270 403.512 270H245.512C242.199 270 239.512 267.314 239.512 264V109C239.512 105.686 242.199 103 245.512 103L403.512 103Z" fill="#141F29"/>
<path d="M356.878 399.314C358.407 401.163 358.407 403.837 356.878 405.686L289.366 487.34C287.366 489.758 283.659 489.758 281.659 487.34L214.147 405.686C212.618 403.837 212.618 401.163 214.147 399.314L281.659 317.661C283.659 315.242 287.366 315.242 289.366 317.661L356.878 399.314Z" fill="#141F29"/>
</g>
<defs>
<linearGradient id="paint0_linear" x1="452.512" y1="439" x2="542.211" y2="367.026" gradientUnits="userSpaceOnUse">
<stop stop-color="#E74D4D"/>
<stop offset="1" stop-color="#FF6B6B"/>
</linearGradient>
<linearGradient id="paint1_linear" x1="540.512" y1="434.092" x2="-9.50096" y2="-87.984" gradientUnits="userSpaceOnUse">
<stop offset="0.0424467" stop-color="#390D8F"/>
<stop offset="0.463718" stop-color="#6D32E1"/>
</linearGradient>
</defs>
</svg>
