<svg width="145" height="51" viewBox="0 0 145 51" fill="none" xmlns="http://www.w3.org/2000/svg">
<path class="act" d="M72.6621 36C71.6508 36 70.6665 35.8454 69.709 35.5351C68.7515 35.2258 67.9423 34.8077 67.2803 34.2837L69.8992 31.7493C70.213 32.0595 70.6213 32.322 71.1275 32.5349C71.6336 32.7497 72.1387 32.8566 72.6449 32.8566C73.2832 32.8566 73.6024 32.679 73.6024 32.3268C73.6024 32.1235 73.4637 31.9574 73.1865 31.8295C72.9092 31.7015 72.2956 31.4982 71.3446 31.2195C70.3204 30.9207 69.5144 30.5198 68.9245 30.0167C68.3345 29.5146 68.04 28.8073 68.04 27.8985C68.04 27.2246 68.1991 26.6289 68.5183 26.1096C68.8364 25.5913 69.2608 25.1818 69.7917 24.883C70.3215 24.5842 70.89 24.3618 71.4982 24.2176C72.1065 24.0735 72.7416 24 73.4036 24C74.2579 24 75.1219 24.1499 75.9956 24.4496C76.8693 24.7493 77.6301 25.1608 78.2803 25.6848L75.6076 28.1076C75.3304 27.8088 74.9844 27.5701 74.5695 27.3935C74.1547 27.2169 73.7657 27.1291 73.4046 27.1291C72.7061 27.1291 72.3569 27.3009 72.3569 27.6427C72.3569 27.803 72.4407 27.9233 72.6094 28.0035C72.7781 28.0837 73.1156 28.1982 73.6206 28.3481C73.9699 28.455 74.2472 28.5381 74.4513 28.5972C74.6555 28.6564 74.9296 28.749 75.2734 28.8779C75.6162 29.0068 75.8935 29.1299 76.1041 29.2473C76.3148 29.3647 76.549 29.5194 76.808 29.7122C77.067 29.9041 77.269 30.1026 77.413 30.305C77.557 30.5083 77.6806 30.7527 77.7827 31.0352C77.8848 31.3188 77.9364 31.6204 77.9364 31.9421C77.9364 33.225 77.4893 34.1538 76.3653 34.9337C75.3175 35.6449 74.0827 36 72.6621 36Z" fill="#002838"/>
<path class="act" d="M83.978 29.2198H83.8925L84.0811 36H80.2803V24H85.6053L87.7971 30.4574H87.8827L89.783 24H95.2803V36H91.3247L91.4439 29.2541L91.3411 29.237L89.081 36H86.2046L83.978 29.2198Z" fill="#002838"/>
<path class="act" d="M97.2803 36L101.77 24H105.84L110.28 36H106.113L105.517 34.2379H101.897L101.334 36H97.2803ZM104.666 31.1524L103.749 28.1859L102.815 31.1524H104.666Z" fill="#002838"/>
<path class="act" d="M112.28 36V24H117.465C118.099 24 118.689 24.0625 119.234 24.1866C119.778 24.3107 120.29 24.5144 120.772 24.7958C121.254 25.0783 121.633 25.4827 121.911 26.0082C122.189 26.5337 122.328 27.1642 122.328 27.8985C122.328 28.6217 122.144 29.2652 121.776 29.83C121.408 30.3959 120.89 30.8306 120.22 31.1352L123.28 36H118.622L116.31 31.7112H116.19V36H112.28ZM116.157 27.1349V29.0675H116.956C117.897 29.0675 118.368 28.7346 118.368 28.0679C118.368 27.4466 117.954 27.1349 117.126 27.1349H116.157Z" fill="#002838"/>
<path class="act" d="M132.311 27.407V36H128.249V27.407H125.28V24H135.28V27.407H132.311Z" fill="#002838"/>
<path class="act" d="M67.2803 51V39H75.9764V42.4291H71.2798V43.4541H75.6905V46.562H71.2798V47.671H76.2803V50.998H67.2803V51Z" fill="#002838"/>
<path class="act" d="M87.3362 51L85.1615 47.521L83.0716 51H78.2803L82.5793 44.799L78.2803 39H83.3355L85.2798 42.228L87.0976 39.103H91.8556L87.8458 44.749L92.2803 51H87.3362Z" fill="#002838"/>
<path class="act" d="M99.3975 47.067H98.2695V51H94.2803V39H99.3975C100.049 39 100.649 39.066 101.199 39.201C101.749 39.336 102.263 39.549 102.739 39.84C103.216 40.132 103.593 40.546 103.868 41.083C104.142 41.621 104.28 42.26 104.28 42.999C104.28 43.705 104.143 44.327 103.868 44.864C103.593 45.402 103.221 45.828 102.757 46.141C102.291 46.455 101.775 46.688 101.208 46.838C100.641 46.99 100.038 47.067 99.3975 47.067ZM99.111 42.109H98.2695V44.025H99.111C99.4476 44.025 99.7341 43.941 99.9695 43.773C100.205 43.605 100.323 43.359 100.323 43.034C100.323 42.417 99.9194 42.109 99.111 42.109Z" fill="#002838"/>
<path class="act" d="M106.28 44.9365C106.28 43.1505 106.891 41.7148 108.113 40.6285C109.336 39.5432 110.889 39 112.771 39C114.654 39 116.209 39.5432 117.438 40.6285C118.666 41.7148 119.28 43.1505 119.28 44.9365C119.28 46.733 118.664 48.1926 117.43 49.3161C116.197 50.4387 114.644 51 112.772 51C110.9 51 109.351 50.4387 108.123 49.3161C106.894 48.1926 106.28 46.733 106.28 44.9365ZM110.459 44.9365C110.459 45.6735 110.677 46.2806 111.112 46.7569C111.547 47.2323 112.1 47.4709 112.772 47.4709C113.433 47.4709 113.983 47.2323 114.424 46.7569C114.865 46.2806 115.085 45.6735 115.085 44.9365C115.085 44.2091 114.868 43.6211 114.432 43.1715C113.997 42.7219 113.444 42.4976 112.772 42.4976C112.1 42.4976 111.547 42.7219 111.112 43.1715C110.677 43.6211 110.459 44.2091 110.459 44.9365Z" fill="#002838"/>
<path class="act" d="M121.28 50.898V39H126.465C127.099 39 127.689 39.062 128.234 39.185C128.778 39.308 129.29 39.51 129.772 39.789C130.254 40.069 130.633 40.47 130.911 40.991C131.189 41.512 131.328 42.137 131.328 42.865C131.328 43.582 131.144 44.22 130.776 44.78C130.408 45.341 129.89 45.772 129.22 46.074L132.28 50.897H127.622L125.31 46.645H125.19V51H121.28V50.898ZM125.156 42.109V44.025H125.955C126.896 44.025 127.367 43.695 127.367 43.034C127.367 42.418 126.953 42.109 126.125 42.109H125.156Z" fill="#002838"/>
<path class="act" d="M141.28 42.378V51H137.28V42.378H134.28V39H144.28V42.378H141.28Z" fill="#002838"/>
<path d="M50.3643 29.7458L43.8643 18.5L47.2803 13L42.0652 12L40.4473 12.5728H20.0023L13.2803 24H7.28027V31L10.0863 29.7458L20.0023 47.3918L32.5013 47.3418L35.2803 51L38.2053 47.3797L39.8303 47.3918L50.3643 29.7458Z" fill="#002838"/>
<path d="M30.1613 42.864C37.4818 42.864 43.4163 36.9295 43.4163 29.609C43.4163 22.2885 37.4818 16.354 30.1613 16.354C22.8407 16.354 16.9062 22.2885 16.9062 29.609C16.9062 36.9295 22.8407 42.864 30.1613 42.864Z" fill="url(#paint0_linear22)"/>
<path d="M7.28003 24L0.160605 37.0561C-0.0643948 37.4621 -0.0513958 38.1201 0.189604 38.5171L7.28003 51L18.28 42L7.28003 24Z" fill="#353E8E"/>
<path d="M29.8734 37.6662L15.5354 37.5732L7.28027 51H23.2803L30.5994 38.8682C30.9734 38.1912 30.6474 37.6502 29.8734 37.6662Z" fill="#6C4896"/>
<path d="M35.2803 51H50.6263C51.0903 51.001 51.7403 50.8661 52.0423 50.235L59.2803 37L44.7803 36L35.2803 51Z" fill="#353E8E"/>
<path d="M35.9132 24.9731L43.8162 37.5761L59.2803 37L51.2803 24L36.6162 23.8101C35.8432 23.8081 35.5262 24.3031 35.9132 24.9731Z" fill="#6C4896"/>
<path d="M47.2803 13L38.8292 0.811079C38.5812 0.418079 38.1202 -0.0589219 37.4302 0.0210781L22.2803 0L23.2803 14.5L47.2803 13Z" fill="#353E8E"/>
<path d="M24.5279 27.389L31.2798 14L22.2798 0L14.8799 14.342L23.1699 27.417C23.5819 28.073 24.1699 28.075 24.5279 27.389Z" fill="#6C4896"/>
<defs>
<linearGradient id="paint0_linear22" x1="17.3106" y1="29.6084" x2="43.8469" y2="29.6084" gradientUnits="userSpaceOnUse">
<stop stop-color="#EC4761"/>
<stop offset="0.141" stop-color="#EC4847"/>
<stop offset="1" stop-color="#FDBB00"/>
</linearGradient>
</defs>
</svg>
