<svg width="229" height="266" viewBox="0 0 229 266" fill="none" xmlns="http://www.w3.org/2000/svg">
<path d="M222.999 203.872C227.499 201.342 228.999 197.8 228.999 193.752C228.999 193.752 228.999 193.752 228.999 193.752C228.999 193.744 229 120.547 229 73.3211C229 69.6168 228.952 65.6766 222.999 62.1888C186.297 40.6843 124.406 4.26281 120.224 1.80129C120.065 1.7077 119.922 1.61902 119.764 1.52363C116.402 -0.507107 112.603 -0.507857 109.24 1.52126C109.079 1.61824 108.952 1.69846 108.79 1.79358C103.781 4.73722 11.0597 59.2349 5.99972 62.1889C0.500244 65.2249 0.00024414 69.4339 0.00024414 72.3091C0.00024414 75.1838 0.000820853 135.54 8.45729e-05 143.147C8.42801e-05 143.15 8.42279e-05 143.148 8.42086e-05 143.151C8.35833e-05 143.249 -0.000104949 172.789 8.42101e-05 191.728C0.000144857 197.8 0.365923 200.552 5.99965 203.872C44.7786 226.724 106.208 262.744 108.437 264.051C108.508 264.093 108.534 264.109 108.604 264.151C111.11 265.661 115.082 267.577 121 263.804L222.999 203.872Z" fill="#5F27CD"/>
<path d="M222.999 203.872C227.499 201.342 228.999 197.8 228.999 193.752C228.999 193.752 228.999 193.752 228.999 193.752C228.999 193.744 229 120.547 229 73.3211C229 69.6168 228.952 65.6766 222.999 62.1888C186.297 40.6843 124.406 4.26281 120.224 1.80129C120.065 1.7077 119.922 1.61902 119.764 1.52363C116.402 -0.507107 112.603 -0.507857 109.24 1.52126C109.079 1.61824 108.952 1.69846 108.79 1.79358C103.781 4.73722 11.0597 59.2349 5.99972 62.1889C0.500244 65.2249 0.00024414 69.4339 0.00024414 72.3091C0.00024414 75.1838 0.000820853 135.54 8.45729e-05 143.147C8.42801e-05 143.15 8.42279e-05 143.148 8.42086e-05 143.151C8.35833e-05 143.249 -0.000104949 172.789 8.42101e-05 191.728C0.000144857 197.8 0.365923 200.552 5.99965 203.872C44.7786 226.724 106.208 262.744 108.437 264.051C108.508 264.093 108.534 264.109 108.604 264.151C111.11 265.661 115.082 267.577 121 263.804L222.999 203.872Z" fill="url(#paint0_linear)"/>
<defs>
<linearGradient id="paint0_linear" x1="7.5" y1="266" x2="452.859" y2="-197.329" gradientUnits="userSpaceOnUse">
<stop offset="0.0424467" stop-color="#390D8F"/>
<stop offset="0.463718" stop-color="#6D32E1"/>
</linearGradient>
</defs>
</svg>
