<svg width="229" height="226" viewBox="0 0 229 226" fill="none" xmlns="http://www.w3.org/2000/svg">
<path d="M229 216C229 221 225 226 219 226L108 226H10.0001C3.99983 226 9.93962e-05 221.159 3.87496e-05 216C-0.000146637 200.23 -6.24935e-06 18.1097 0 10.2612V9.99997L2.11511e-06 9.99416C0.00400669 3.549 5.50134 0 10.0003 0L218 -9.15527e-05C225.5 -9.15527e-05 229 4.99991 229 9.99991V216Z" fill="#FECA57"/>
<path d="M229 216C229 221 225 226 219 226L108 226H10.0001C3.99983 226 9.93962e-05 221.159 3.87496e-05 216C-0.000146637 200.23 -6.24935e-06 18.1097 0 10.2612V9.99997L2.11511e-06 9.99416C0.00400669 3.549 5.50134 0 10.0003 0L218 -9.15527e-05C225.5 -9.15527e-05 229 4.99991 229 9.99991V216Z" fill="url(#paint0_linear)"/>
<defs>
<linearGradient id="paint0_linear" x1="-44.5" y1="280" x2="203" y2="27.5" gradientUnits="userSpaceOnUse">
<stop offset="0.0353022" stop-color="#F0AC15"/>
<stop offset="1" stop-color="#FECA57"/>
</linearGradient>
</defs>
</svg>
