<svg width="229" height="273" viewBox="0 0 229 273" fill="none" xmlns="http://www.w3.org/2000/svg">
<path d="M123.077 267C116.577 275 111.577 275 105.577 267C99.8987 259.429 87.9503 245.587 86.6861 244.126C86.6088 244.036 86.5757 243.998 86.5002 243.907C84.1376 241.056 28.0168 173.323 2.07613 142C-0.223243 139.224 -1.12443 134.84 2.07616 131C15.938 114.367 92.5562 21.7422 104.116 7.76631C105.126 6.54497 106.028 5.33828 107.074 4.14799C112.43 -1.9432 117.121 -1.32586 123.027 6.00003C129.477 14.0001 224.177 127.8 226.577 131C229.577 135 229.077 139 226.577 142C224.078 145 129.577 259 123.077 267Z" fill="#00D2D3"/>
<path d="M123.077 267C116.577 275 111.577 275 105.577 267C99.8987 259.429 87.9503 245.587 86.6861 244.126C86.6088 244.036 86.5757 243.998 86.5002 243.907C84.1376 241.056 28.0168 173.323 2.07613 142C-0.223243 139.224 -1.12443 134.84 2.07616 131C15.938 114.367 92.5562 21.7422 104.116 7.76631C105.126 6.54497 106.028 5.33828 107.074 4.14799C112.43 -1.9432 117.121 -1.32586 123.027 6.00003C129.477 14.0001 224.177 127.8 226.577 131C229.577 135 229.077 139 226.577 142C224.078 145 129.577 259 123.077 267Z" fill="url(#paint0_linear)"/>
<defs>
<linearGradient id="paint0_linear" x1="25" y1="252.5" x2="212.677" y2="82.4625" gradientUnits="userSpaceOnUse">
<stop offset="0.0353022" stop-color="#00BEBF"/>
<stop offset="1" stop-color="#00D2D3"/>
</linearGradient>
</defs>
</svg>
