<svg width="200" height="118" viewBox="0 0 200 118" fill="none" xmlns="http://www.w3.org/2000/svg">
    <path d="M30.64 30.98C30.64 33.3 30.04 35.5 28.84 37.58C27.68 39.66 25.86 41.36 23.38 42.68C20.94 43.96 17.76 44.6 13.84 44.6C11.88 44.6 10.16 44.5 8.68 44.3C7.24 44.14 5.88 43.86 4.6 43.46C3.32 43.06 2 42.54 0.64 41.9V31.58C2.96 32.74 5.3 33.64 7.66 34.28C10.02 34.88 12.16 35.18 14.08 35.18C15.8 35.18 17.06 34.88 17.86 34.28C18.66 33.68 19.06 32.92 19.06 32C19.06 30.88 18.46 29.98 17.26 29.3C16.1 28.58 14.12 27.6 11.32 26.36C9.2 25.36 7.36 24.32 5.8 23.24C4.24 22.12 3.04 20.76 2.2 19.16C1.36 17.56 0.94 15.54 0.94 13.1C0.94 10.34 1.62 8.04 2.98 6.2C4.34 4.32 6.22 2.92 8.62 2C11.06 1.04 13.88 0.559998 17.08 0.559998C19.88 0.559998 22.4 0.879998 24.64 1.52C26.88 2.12 28.88 2.82 30.64 3.62L27.1 12.56C25.26 11.72 23.44 11.06 21.64 10.58C19.88 10.06 18.24 9.8 16.72 9.8C15.24 9.8 14.14 10.06 13.42 10.58C12.74 11.1 12.4 11.76 12.4 12.56C12.4 13.24 12.66 13.84 13.18 14.36C13.7 14.88 14.56 15.46 15.76 16.1C17 16.7 18.68 17.48 20.8 18.44C22.88 19.36 24.64 20.38 26.08 21.5C27.56 22.58 28.68 23.88 29.44 25.4C30.24 26.88 30.64 28.74 30.64 30.98ZM77.0889 10.22C80.8889 10.22 83.7889 11.18 85.7889 13.1C87.7889 15.02 88.7889 18.12 88.7889 22.4V44H77.3289V25.94C77.3289 23.42 76.9889 21.68 76.3089 20.72C75.6289 19.72 74.6289 19.22 73.3089 19.22C71.4689 19.22 70.1889 20.04 69.4689 21.68C68.7489 23.28 68.3889 25.56 68.3889 28.52V44H56.9289V25.94C56.9289 23.54 56.6089 21.82 55.9689 20.78C55.3289 19.74 54.3689 19.22 53.0889 19.22C51.1289 19.22 49.7889 20.1 49.0689 21.86C48.3889 23.62 48.0489 26.16 48.0489 29.48V44H36.5889V10.82H45.2289L46.9089 14.9H47.2089C48.0889 13.54 49.3489 12.42 50.9889 11.54C52.6689 10.66 54.7289 10.22 57.1689 10.22C59.6089 10.22 61.6089 10.64 63.1689 11.48C64.7689 12.28 66.0689 13.4 67.0689 14.84H67.4289C68.4689 13.36 69.8089 12.22 71.4489 11.42C73.1289 10.62 75.0089 10.22 77.0889 10.22ZM112.789 10.22C116.989 10.22 120.269 11.26 122.629 13.34C124.989 15.42 126.169 18.38 126.169 22.22V44H118.249L116.029 39.62H115.789C114.869 40.78 113.909 41.74 112.909 42.5C111.949 43.22 110.829 43.74 109.549 44.06C108.269 44.42 106.709 44.6 104.869 44.6C101.989 44.6 99.5889 43.72 97.6689 41.96C95.7489 40.2 94.7889 37.5 94.7889 33.86C94.7889 30.3 96.0089 27.66 98.4489 25.94C100.929 24.22 104.509 23.26 109.189 23.06L114.709 22.88V22.4C114.709 20.92 114.349 19.88 113.629 19.28C112.909 18.64 111.929 18.32 110.689 18.32C109.369 18.32 107.909 18.56 106.309 19.04C104.709 19.48 103.089 20.06 101.449 20.78L98.1489 13.22C100.069 12.22 102.229 11.48 104.629 11C107.069 10.48 109.789 10.22 112.789 10.22ZM112.129 29.3C110.049 29.38 108.569 29.76 107.689 30.44C106.849 31.08 106.429 32 106.429 33.2C106.429 34.32 106.729 35.16 107.329 35.72C107.929 36.24 108.729 36.5 109.729 36.5C111.129 36.5 112.309 36.06 113.269 35.18C114.269 34.3 114.769 33.16 114.769 31.76V29.18L112.129 29.3ZM154.012 10.22C154.652 10.22 155.312 10.26 155.992 10.34C156.672 10.42 157.172 10.5 157.492 10.58L156.472 21.38C156.072 21.3 155.572 21.22 154.972 21.14C154.412 21.06 153.612 21.02 152.572 21.02C151.612 21.02 150.572 21.16 149.452 21.44C148.372 21.72 147.432 22.34 146.632 23.3C145.832 24.22 145.432 25.68 145.432 27.68V44H133.972V10.82H142.492L144.292 16.1H144.832C145.752 14.46 147.032 13.08 148.672 11.96C150.352 10.8 152.132 10.22 154.012 10.22ZM178.357 35.54C179.397 35.54 180.337 35.44 181.177 35.24C182.057 35 182.957 34.72 183.877 34.4V42.74C182.637 43.26 181.317 43.7 179.917 44.06C178.517 44.42 176.737 44.6 174.577 44.6C172.417 44.6 170.517 44.26 168.877 43.58C167.277 42.9 166.017 41.74 165.097 40.1C164.177 38.42 163.717 36.08 163.717 33.08V19.4H159.697V14.72L164.797 11.12L167.737 4.16H175.237V10.82H183.397V19.4H175.237V32.3C175.237 34.46 176.277 35.54 178.357 35.54ZM28.06 103H2.62V60.16H28.06V69.46H14.2V76.18H27.04V85.48H14.2V93.58H28.06V103ZM41.9097 86.08L31.7697 69.82H44.7897L49.8297 79.12L54.9897 69.82H68.0097L57.6297 86.08L68.4297 103H55.4097L49.8297 92.92L44.2497 103H31.2297L41.9097 86.08ZM92.9627 69.22C96.6427 69.22 99.5227 70.7 101.603 73.66C103.683 76.58 104.723 80.8 104.723 86.32C104.723 90.08 104.183 93.26 103.103 95.86C102.063 98.42 100.623 100.36 98.7827 101.68C96.9827 102.96 94.9227 103.6 92.6027 103.6C90.2827 103.6 88.4627 103.18 87.1427 102.34C85.8627 101.5 84.8627 100.64 84.1427 99.76H83.7827C83.8627 100.52 83.9427 101.34 84.0227 102.22C84.1027 103.1 84.1427 104.12 84.1427 105.28V117.4H72.6827V69.82H81.9827L83.6027 74.02H84.1427C84.9427 72.74 86.0227 71.62 87.3827 70.66C88.7827 69.7 90.6427 69.22 92.9627 69.22ZM88.6427 78.22C86.9627 78.22 85.8027 78.82 85.1627 80.02C84.5627 81.22 84.2227 83 84.1427 85.36V86.26C84.1427 88.9 84.4627 90.92 85.1027 92.32C85.7427 93.68 86.9427 94.36 88.7027 94.36C90.1427 94.36 91.2227 93.74 91.9427 92.5C92.7027 91.22 93.0827 89.12 93.0827 86.2C93.0827 83.28 92.7027 81.22 91.9427 80.02C91.1827 78.82 90.0827 78.22 88.6427 78.22ZM142.917 86.32C142.917 91.88 141.437 96.16 138.477 99.16C135.517 102.12 131.457 103.6 126.297 103.6C123.097 103.6 120.257 102.94 117.777 101.62C115.297 100.26 113.337 98.3 111.897 95.74C110.497 93.14 109.797 90 109.797 86.32C109.797 80.84 111.277 76.62 114.237 73.66C117.197 70.7 121.277 69.22 126.477 69.22C129.677 69.22 132.497 69.88 134.937 71.2C137.417 72.52 139.357 74.46 140.757 77.02C142.197 79.54 142.917 82.64 142.917 86.32ZM121.437 86.32C121.437 89.16 121.817 91.34 122.577 92.86C123.337 94.34 124.617 95.08 126.417 95.08C128.177 95.08 129.417 94.34 130.137 92.86C130.897 91.34 131.277 89.16 131.277 86.32C131.277 83.48 130.897 81.34 130.137 79.9C129.417 78.46 128.157 77.74 126.357 77.74C124.637 77.74 123.377 78.46 122.577 79.9C121.817 81.34 121.437 83.48 121.437 86.32ZM169.48 69.22C170.12 69.22 170.78 69.26 171.46 69.34C172.14 69.42 172.64 69.5 172.96 69.58L171.94 80.38C171.54 80.3 171.04 80.22 170.44 80.14C169.88 80.06 169.08 80.02 168.04 80.02C167.08 80.02 166.04 80.16 164.92 80.44C163.84 80.72 162.9 81.34 162.1 82.3C161.3 83.22 160.9 84.68 160.9 86.68V103H149.44V69.82H157.96L159.76 75.1H160.3C161.22 73.46 162.5 72.08 164.14 70.96C165.82 69.8 167.6 69.22 169.48 69.22ZM193.825 94.54C194.865 94.54 195.805 94.44 196.645 94.24C197.525 94 198.425 93.72 199.345 93.4V101.74C198.105 102.26 196.785 102.7 195.385 103.06C193.985 103.42 192.205 103.6 190.045 103.6C187.885 103.6 185.985 103.26 184.345 102.58C182.745 101.9 181.485 100.74 180.565 99.1C179.645 97.42 179.185 95.08 179.185 92.08V78.4H175.165V73.72L180.265 70.12L183.205 63.16H190.705V69.82H198.865V78.4H190.705V91.3C190.705 93.46 191.745 94.54 193.825 94.54Z"
          fill="#141F29"/>
</svg>
