<svg width="30" height="30" viewBox="0 0 30 30" fill="none" xmlns="http://www.w3.org/2000/svg">
<path d="M3.25066 1.71391C3.1831 1.7867 3.06895 1.93874 2.99266 2.04323C1.57453 3.93869 -0.120235 6.85262 0.00672696 9.665C0.222213 14.374 6.52721 20.6327 8.45493 22.439C10.3832 24.2446 17.0365 30.1259 21.7073 29.9979C22.486 29.9786 23.3112 29.8136 24.1592 29.5072C26.1166 28.7998 27.8836 27.4544 29.0059 26.4641C29.0059 26.4641 29.2475 26.2569 29.3407 26.1571C29.5754 25.9018 29.7612 25.529 29.9086 25.0177C29.9837 24.7565 30 24.4812 30 24.2969C30 24.0914 29.9796 23.6934 29.8457 23.3312C29.6622 22.8358 29.452 22.4812 29.2004 22.2429C29.014 22.0686 24.8027 18.7431 24.7759 18.7244L24.7439 18.7032C24.5156 18.5265 24.2774 18.3886 24.0351 18.2929C23.4003 18.0423 22.6974 18.0323 22.055 18.2636C21.6467 18.4109 21.2792 18.6545 20.9956 18.9633L19.5484 20.5247C19.4127 20.6715 19.1605 20.8235 19.0714 20.8452C18.9776 20.8629 18.9124 20.8675 18.8705 20.8687L9.15729 11.7706C9.134 11.7483 9.12235 11.7266 9.11594 11.7113C9.1206 11.6972 9.12643 11.6849 9.12934 11.6755C9.16487 11.6027 9.3326 11.3714 9.54226 11.1425L10.9744 9.57988C11.7321 8.75865 11.9202 7.48131 11.4379 6.48515C11.2661 6.13001 11.0309 5.86468 10.9219 5.73964L10.8655 5.6692C10.8375 5.63692 7.29189 1.71509 7.13289 1.56775C6.73861 1.19851 6.11778 0.99893 5.23546 0.956665C4.74508 0.933184 4.13007 1.07876 3.77307 1.30242C3.5436 1.44741 3.3718 1.58242 3.25066 1.71391ZM5.92559 2.84274C6.12419 3.04584 9.35123 6.60842 9.52013 6.79509L9.63893 6.94009C9.68727 6.99468 9.80084 7.12323 9.86723 7.25942C10.0396 7.61632 9.97206 8.08124 9.69251 8.38472L8.25866 9.94911C8.09093 10.1317 7.68326 10.5989 7.52135 10.9881C7.41419 11.2476 7.36352 11.4736 7.36294 11.736C7.38041 12.2373 7.59124 12.7045 7.96281 13.0573L17.7738 22.247C18.1471 22.5963 18.6899 22.7078 19.3876 22.5781C19.9269 22.4777 20.5111 22.0668 20.8256 21.7275L22.2751 20.1631C22.3718 20.0581 22.4999 19.9747 22.6444 19.9219C22.8855 19.835 23.1604 19.8391 23.398 19.933C23.5366 19.9876 23.6519 20.0786 23.6898 20.1085C23.7259 20.1367 23.755 20.1573 23.7812 20.1737C24.1848 20.4889 27.8061 23.3577 28.0024 23.5244C28.003 23.5255 28.0886 23.6224 28.2091 23.947C28.226 23.9928 28.2528 24.1278 28.2528 24.2963C28.2528 24.4178 28.2394 24.497 28.2307 24.5258C28.1398 24.8404 28.0647 24.9508 28.0647 24.9532C28.0082 25.0101 27.8906 25.1081 27.8708 25.1252C26.8463 26.0286 25.2692 27.2349 23.5692 27.8489C22.8971 28.0919 22.2565 28.2222 21.6625 28.2369C18.4715 28.3244 13.1939 24.4724 9.64476 21.1481C6.09507 17.8245 1.89892 12.8002 1.75216 9.58399C1.645 7.26529 3.14117 4.7699 4.37293 3.12274L4.42011 3.05934C4.44748 3.02178 4.49698 2.95133 4.52261 2.92081C4.56629 2.87913 4.63151 2.83863 4.68335 2.80576C4.76081 2.76584 5.00133 2.70948 5.15159 2.71712C5.66759 2.74236 5.90637 2.83569 5.92559 2.84274Z" fill="#C8D6E5"/>
</svg>
