<svg width="5" height="10" viewBox="0 0 5 10" fill="none" xmlns="http://www.w3.org/2000/svg">
<path d="M4.36 4.66001L0.86 1.16001L0.16 1.86001L3.66 5.36001L4.36 4.66001ZM0.86 8.86001L4.36 5.36001L3.66 4.66001L0.16 8.16001L0.86 8.86001ZM0.86 1.16001C0.66 0.96001 0.35 0.96001 0.15 1.16001C-0.05 1.36001 -0.05 1.67001 0.15 1.87001L0.86 1.16001ZM4.01 5.01001L4.36 5.36001C4.56 5.16001 4.56 4.85001 4.36 4.65001L4.01 5.01001ZM0.16 8.16001C-0.04 8.36001 -0.04 8.67001 0.16 8.87001C0.36 9.07001 0.67 9.07001 0.87 8.87001L0.16 8.16001Z" fill="#FF6B6B"/>
</svg>
