<svg width="328" height="387" viewBox="0 0 328 387" fill="none" xmlns="http://www.w3.org/2000/svg">
<path d="M195.512 159.611C195.512 162.815 192.931 166 189.089 166L106.687 166H33.9359C30.0838 166 27.5123 162.922 27.5123 159.611C27.5121 147.999 27.5122 14.3426 27.5122 7.64961L27.5122 7.38992L27.5122 7.38946L27.5123 7.38441C27.5123 7.38434 27.5123 7.38427 27.5123 7.3842C27.5123 7.38415 27.5123 7.3841 27.5123 7.38406C27.5158 3.30039 31.0138 1.00007 33.9361 1.00007L188.346 1C190.897 1 192.667 1.83944 193.8 3.00586C194.944 4.18393 195.512 5.77165 195.512 7.38938V159.611Z" fill="white" stroke="#333333" stroke-width="2"/>
<path d="M320.512 295C320.512 317.091 302.604 335 280.512 335C258.421 335 240.512 317.091 240.512 295C240.512 272.909 258.421 255 280.512 255C302.604 255 320.512 272.909 320.512 295Z" fill="white" stroke="black" stroke-width="2"/>
<path d="M143.107 302.049L75.595 383.702C73.9953 385.637 71.0293 385.637 69.4295 383.702L1.91725 302.049C0.694247 300.57 0.694249 298.43 1.91726 296.951L69.4295 215.298C71.0293 213.363 73.9953 213.363 75.595 215.298L143.107 296.951C144.33 298.43 144.33 300.57 143.107 302.049Z" fill="white" stroke="black" stroke-width="2"/>
<mask id="mask0" mask-type="alpha" maskUnits="userSpaceOnUse" x="15" y="68" width="313" height="272">
<path d="M253.693 73.475C251.724 70.0858 248.1 68.0002 244.181 68.0002L98.8437 68.0001C94.9242 68.0001 91.3007 70.0857 89.332 73.475L16.7217 198.475C14.7373 201.891 14.7373 206.109 16.7217 209.525L89.3319 334.525C91.3007 337.914 94.9241 340 98.8436 340L244.181 340C248.1 340 251.724 337.915 253.692 334.525L326.303 209.525C328.287 206.109 328.287 201.891 326.303 198.475L253.693 73.475Z" fill="#FF6B6B"/>
</mask>
<g mask="url(#mask0)">
<path d="M254.641 75.1273C251.673 69.7824 247.518 68.0007 242.77 68.0006C242.77 68.0006 242.77 68.0006 242.77 68.0006C242.763 68.0006 156.907 68 101.513 68C97.168 68 92.5464 68.0568 88.4555 75.1273C63.1755 118.819 20.3205 192.563 17.6062 197.234C17.514 197.393 17.4208 197.545 17.3262 197.702C14.9083 201.723 14.9076 206.273 17.3239 210.293C17.42 210.453 17.4798 210.548 17.5734 210.709C20.4983 215.749 84.9753 326.837 88.4556 332.874C92.0166 339.406 96.9535 340 100.326 340C103.698 340 174.495 339.999 183.414 340C183.417 340 183.415 340 183.418 340C183.517 340 218.177 340 240.396 340C247.518 340 250.747 339.565 254.641 332.874C281.524 286.676 323.945 213.414 325.239 211.179C325.28 211.109 325.29 211.093 325.331 211.023C327.104 208.047 329.372 203.324 324.937 196.28L254.641 75.1273Z" fill="#5F27CD"/>
<path d="M254.641 75.1273C251.673 69.7824 247.518 68.0007 242.77 68.0006C242.77 68.0006 242.77 68.0006 242.77 68.0006C242.763 68.0006 156.907 68 101.513 68C97.168 68 92.5464 68.0568 88.4555 75.1273C63.1755 118.819 20.3205 192.563 17.6062 197.234C17.514 197.393 17.4208 197.545 17.3262 197.702C14.9083 201.723 14.9076 206.273 17.3239 210.293C17.42 210.453 17.4798 210.548 17.5734 210.709C20.4983 215.749 84.9753 326.837 88.4556 332.874C92.0166 339.406 96.9535 340 100.326 340C103.698 340 174.495 339.999 183.414 340C183.417 340 183.415 340 183.418 340C183.517 340 218.177 340 240.396 340C247.518 340 250.747 339.565 254.641 332.874C281.524 286.676 323.945 213.414 325.239 211.179C325.28 211.109 325.29 211.093 325.331 211.023C327.104 208.047 329.372 203.324 324.937 196.28L254.641 75.1273Z" fill="url(#paint0_linear)"/>
<path d="M321.512 295C321.512 317.644 303.156 336 280.512 336C257.869 336 239.512 317.644 239.512 295C239.512 272.356 257.869 254 280.512 254C303.156 254 321.512 272.356 321.512 295Z" fill="#141F29"/>
<path d="M190.512 -2.62268e-07C193.826 -1.17422e-07 196.512 2.68629 196.512 6L196.512 161C196.512 164.314 193.826 167 190.512 167L32.5122 167C29.1985 167 26.5122 164.314 26.5122 161L26.5122 5.99999C26.5122 2.68628 29.1985 -7.31351e-06 32.5122 -7.16867e-06L190.512 -2.62268e-07Z" fill="#141F29"/>
<path d="M143.878 296.314C145.407 298.163 145.407 300.837 143.878 302.686L76.3657 384.34C74.366 386.758 70.6586 386.758 68.6588 384.34L1.14657 302.686C-0.382192 300.837 -0.382189 298.163 1.14657 296.314L68.6589 214.661C70.6586 212.242 74.366 212.242 76.3657 214.661L143.878 296.314Z" fill="#141F29"/>
</g>
<defs>
<linearGradient id="paint0_linear" x1="327.512" y1="331.092" x2="-222.501" y2="-190.984" gradientUnits="userSpaceOnUse">
<stop offset="0.0424467" stop-color="#390D8F"/>
<stop offset="0.463718" stop-color="#6D32E1"/>
</linearGradient>
</defs>
</svg>
