<svg width="328" height="387" viewBox="0 0 328 387" fill="none" xmlns="http://www.w3.org/2000/svg">
<path d="M195.512 159.611C195.512 162.815 192.931 166 189.089 166L106.687 166H33.9359C30.0838 166 27.5123 162.922 27.5123 159.611C27.5121 147.999 27.5122 14.3426 27.5122 7.64961L27.5122 7.38992L27.5122 7.38946L27.5123 7.38441C27.5123 7.38434 27.5123 7.38427 27.5123 7.3842C27.5123 7.38415 27.5123 7.3841 27.5123 7.38406C27.5158 3.30039 31.0138 1.00007 33.9361 1.00007L188.346 1C190.897 1 192.667 1.83944 193.8 3.00586C194.944 4.18393 195.512 5.77165 195.512 7.38938V159.611Z" fill="white" stroke="#141F29" stroke-width="2"/>
<path d="M321.512 295C321.512 317.644 303.156 336 280.512 336C257.869 336 239.512 317.644 239.512 295C239.512 272.356 257.869 254 280.512 254C303.156 254 321.512 272.356 321.512 295Z" fill="#FF6B6B"/>
<path d="M321.512 295C321.512 317.644 303.156 336 280.512 336C257.869 336 239.512 317.644 239.512 295C239.512 272.356 257.869 254 280.512 254C303.156 254 321.512 272.356 321.512 295Z" fill="url(#paint0_linear)"/>
<path d="M143.107 302.049L75.595 383.702C73.9953 385.637 71.0293 385.637 69.4295 383.702L1.91725 302.049C0.694247 300.57 0.694249 298.43 1.91726 296.951L69.4295 215.298C71.0293 213.363 73.9953 213.363 75.595 215.298L143.107 296.951C144.33 298.43 144.33 300.57 143.107 302.049Z" fill="white" stroke="#141F29" stroke-width="2"/>
<mask id="mask0" mask-type="alpha" maskUnits="userSpaceOnUse" x="15" y="68" width="313" height="272">
<path d="M253.693 73.475C251.724 70.0858 248.1 68.0002 244.181 68.0002L98.8437 68.0001C94.9242 68.0001 91.3007 70.0857 89.332 73.475L16.7217 198.475C14.7373 201.891 14.7373 206.109 16.7217 209.525L89.3319 334.525C91.3007 337.914 94.9241 340 98.8436 340L244.181 340C248.1 340 251.724 337.915 253.692 334.525L326.303 209.525C328.287 206.109 328.287 201.891 326.303 198.475L253.693 73.475Z" fill="#FF6B6B"/>
</mask>
<g mask="url(#mask0)">
<path d="M324.072 196.782L324.081 196.797L324.091 196.813C326.206 200.173 326.677 202.896 326.467 205.081C326.254 207.29 325.337 209.059 324.472 210.511L324.447 210.554C324.424 210.592 324.407 210.62 324.374 210.678C323.08 212.913 280.659 286.174 253.776 332.371C251.882 335.625 250.24 337.203 248.332 338.028C246.366 338.879 243.986 339 240.396 339C218.177 339 183.517 339 183.418 339L183.414 339C175.751 338.999 122.405 339 105.398 339L100.326 339C98.6947 339 96.7868 338.854 94.8789 337.978C92.9903 337.11 91.0199 335.488 89.3336 332.395L89.3279 332.385L89.3219 332.374C85.8407 326.336 21.3623 215.245 18.4383 210.207C18.371 210.091 18.3152 210 18.2593 209.908C18.2336 209.865 18.2079 209.823 18.181 209.778C15.9553 206.075 15.9559 201.921 18.1832 198.218C18.2049 198.181 18.2273 198.144 18.2502 198.106C18.3214 197.989 18.3972 197.863 18.4708 197.736C21.185 193.066 64.0405 119.321 89.321 75.6281C91.2791 72.2438 93.3015 70.6367 95.2654 69.8386C97.2694 69.0243 99.3215 69 101.513 69C156.268 69 240.787 69.0006 242.736 69.0006H242.77H242.77C245.019 69.0006 247.067 69.4219 248.887 70.4337C250.703 71.4431 252.359 73.0775 253.766 75.6127L253.771 75.6209L253.776 75.6291L324.072 196.782Z" fill="white" stroke="#141F29" stroke-width="2"/>
<path d="M321.512 295C321.512 317.644 303.156 336 280.512 336C257.869 336 239.512 317.644 239.512 295C239.512 272.356 257.869 254 280.512 254C303.156 254 321.512 272.356 321.512 295Z" fill="#141F29"/>
<path d="M190.512 -2.62268e-07C193.826 -1.17422e-07 196.512 2.68629 196.512 6L196.512 161C196.512 164.314 193.826 167 190.512 167L32.5122 167C29.1985 167 26.5122 164.314 26.5122 161L26.5122 5.99999C26.5122 2.68628 29.1985 -7.31351e-06 32.5122 -7.16867e-06L190.512 -2.62268e-07Z" fill="#141F29"/>
<path d="M143.878 296.314C145.407 298.163 145.407 300.837 143.878 302.686L76.3657 384.34C74.366 386.758 70.6586 386.758 68.6588 384.34L1.14657 302.686C-0.382192 300.837 -0.382189 298.163 1.14657 296.314L68.6589 214.661C70.6586 212.242 74.366 212.242 76.3657 214.661L143.878 296.314Z" fill="#141F29"/>
</g>
<defs>
<linearGradient id="paint0_linear" x1="239.512" y1="336" x2="329.211" y2="264.026" gradientUnits="userSpaceOnUse">
<stop stop-color="#E74D4D"/>
<stop offset="1" stop-color="#FF6B6B"/>
</linearGradient>
</defs>
</svg>
