<svg width="118" height="117" viewBox="0 0 118 117" fill="none" xmlns="http://www.w3.org/2000/svg">
<path d="M66.8034 38.3778C64.3526 32.3136 61.7053 25.8333 59.0683 19.4883H58.2721L54.539 29.4739L65.5728 57.6729H44.2187C37.9417 74.2012 36.039 74.5965 33.1022 74.6797V75.7199H50.8059V74.6797C39.7721 75.0022 43.1846 65.0997 45.4079 58.7027H65.9761L68.6751 65.651C70.5778 70.1238 71.3741 74.6797 67.0826 74.6797V75.7199H85.1896V75.5222C80.6499 74.2636 76.7617 71.9545 73.5147 68.5739C68.3545 63.217 65.7693 56.1439 65.7693 47.3856C65.7693 44.1715 66.1105 41.1654 66.8034 38.3778Z" fill="#1C436B"/>
<path d="M113.491 25.6973L114.421 21.7446H116.386V22.0047C116.169 26.4774 116.055 29.7539 116.055 31.8447C116.055 32.4376 116.086 33.8106 116.138 35.9533C116.169 37.3368 116.19 38.4497 116.221 39.2923H114.173C113.646 33.4257 111.681 28.8282 108.31 25.51C104.918 22.1815 100.554 20.5172 95.1872 20.5172C89.055 20.5172 84.3292 22.7328 81.0408 27.1535C77.7523 31.5846 76.0978 37.9193 76.0978 46.1886C76.0978 54.5724 77.9281 61.0942 81.5992 65.723C85.2599 70.3726 90.3787 72.6921 96.9245 72.6921C101.35 72.6921 105.104 71.6 108.165 69.3844C111.257 67.1688 113.439 63.9963 114.742 59.8876H117.038C115.786 65.0365 113.263 68.9891 109.468 71.7248C105.663 74.4604 100.813 75.8335 94.9287 75.8335C86.6663 75.8335 80.0067 73.2226 74.9396 67.9698C69.8829 62.7273 67.339 55.8102 67.339 47.2496C67.339 38.6058 69.8932 31.5534 75.012 26.1341C80.1308 20.7148 86.7593 18 94.9184 18C98.6721 18 102.126 18.6553 105.259 19.9555C108.403 21.2661 111.143 23.1696 113.491 25.6973Z" fill="#1C436B"/>
<path d="M34.3615 40.6356C39.139 40.6356 41.5795 42.4247 42.8308 45.1707C44.0717 47.896 44.1234 51.5574 44.1234 55.3436H44.9403V54.9691C44.9403 47.4903 44.93 40.6148 55.5295 40.6356V39.8555H34.3615V40.6356Z" fill="#1C436B"/>
<path d="M29.1098 93.3915C20.0925 93.3915 13.981 87.681 13.981 77.6433V47.8425C13.981 41.487 17.0316 40.7693 20.5889 40.7693V39.7188H0V40.7693C3.64002 40.7693 5.79094 42.2984 5.79094 47.6761V76.9984C5.79094 90.0942 14.3119 97.0009 24.9734 97.0009C35.2317 97.0009 45.159 91.696 45.0763 77.3209H44.0008C44.0008 87.6082 37.5481 93.3915 29.1098 93.3915Z" fill="#1C436B"/>
<path d="M29.1098 93.3915C20.0925 93.3915 13.981 87.681 13.981 77.6433V47.8425C13.981 41.487 17.0316 40.7693 20.5889 40.7693V39.7188H0V40.7693C3.64002 40.7693 5.79094 42.2984 5.79094 47.6761V76.9984C5.79094 90.0942 14.3119 97.0009 24.9734 97.0009C35.2317 97.0009 45.159 91.696 45.0763 77.3209H44.0008C44.0008 87.6082 37.5481 93.3915 29.1098 93.3915ZM29.1098 93.5163C24.4874 93.5163 20.6199 92.0289 17.9312 89.2308C15.3357 86.5264 13.8466 82.6154 13.8466 77.6433V47.8425C13.8466 44.618 14.6325 42.8185 15.8734 41.8199C17.0833 40.8421 18.7068 40.6445 20.4648 40.6341V39.854H0.124092V40.6341C1.92342 40.6549 3.35047 41.0606 4.35355 42.1111C5.36696 43.1929 5.91503 44.9508 5.91503 47.6761V76.9984C5.91503 83.2499 7.86948 88.0763 11.0648 91.4048C14.5291 95.0142 19.4617 96.8761 24.9734 96.8761H25.1492C30.1956 96.8449 35.149 95.5135 38.8303 92.445C42.5221 89.3661 44.9419 84.5397 44.9419 77.4977V77.4457H44.1249C44.1042 82.4073 42.5738 86.3184 40.0506 89.0436C37.3412 91.9665 33.4944 93.5163 29.1098 93.5163Z" fill="#1C436B"/>
</svg>
