<svg width="117" height="117" viewBox="0 0 117 117" fill="none" xmlns="http://www.w3.org/2000/svg">
<path d="M66.7819 39.3758C64.3318 33.3116 61.6854 26.8314 59.0493 20.4863H58.2533L54.5214 30.472L65.5517 58.671H44.2045C37.9295 75.1993 36.0274 75.5945 33.0915 75.6777V76.7179H50.7895V75.6777C39.7593 76.0002 43.1707 66.0978 45.3933 59.7007H65.9549L68.653 66.6491C70.5551 71.1218 71.3511 75.6777 67.061 75.6777V76.7179H85.1622V76.5203C80.624 75.2617 76.737 72.9525 73.491 69.5719C68.3325 64.2151 65.7481 57.1419 65.7481 48.3837C65.7481 45.1696 66.0892 42.1635 66.7819 39.3758Z" fill="white"/>
<path d="M113.454 26.6973L114.385 22.7446H116.349V23.0047C116.132 27.4774 116.018 30.7539 116.018 32.8447C116.018 33.4376 116.049 34.8106 116.101 36.9533C116.132 38.3368 116.152 39.4497 116.183 40.2923H114.136C113.609 34.4257 111.645 29.8282 108.275 26.51C104.884 23.1815 100.522 21.5172 95.1566 21.5172C89.0264 21.5172 84.3021 23.7328 81.0147 28.1535C77.7273 32.5846 76.0733 38.9193 76.0733 47.1886C76.0733 55.5724 77.9031 62.0942 81.5729 66.723C85.2325 71.3726 90.3496 73.6921 96.8933 73.6921C101.318 73.6921 105.07 72.6 108.13 70.3844C111.221 68.1688 113.403 64.9963 114.705 60.8876H117C115.749 66.0365 113.227 69.9891 109.433 72.7248C105.629 75.4604 100.78 76.8335 94.8981 76.8335C86.6384 76.8335 79.9809 74.2226 74.9155 68.9698C69.8604 63.7273 67.3173 56.8102 67.3173 48.2496C67.3173 39.6058 69.8707 32.5534 74.9879 27.1341C80.105 21.7148 86.7314 19 94.8878 19C98.6404 19 102.093 19.6553 105.225 20.9555C108.368 22.2661 111.108 24.1696 113.454 26.6973Z" fill="white"/>
<path d="M34.3504 41.6336C39.1264 41.6336 41.5661 43.4227 42.817 46.1688C44.0575 48.894 44.1092 52.5554 44.1092 56.3416H44.9258V55.9672C44.9258 48.4884 44.9155 41.6128 55.5116 41.6336V40.8535H34.3504V41.6336Z" fill="white"/>
<path d="M29.1005 94.3896C20.086 94.3896 13.9765 88.679 13.9765 78.6414V48.8405C13.9765 42.4851 17.0261 41.7674 20.5822 41.7674V40.7168H0V41.7674C3.63885 41.7674 5.78908 43.2964 5.78908 48.6741V77.9965C5.78908 91.0922 14.3073 97.999 24.9654 97.999C35.2203 97.999 45.1445 92.6941 45.0618 78.3189H43.9867C43.9867 88.6062 37.536 94.3896 29.1005 94.3896Z" fill="white"/>
<path d="M29.1005 94.3896C20.086 94.3896 13.9765 88.679 13.9765 78.6414V48.8405C13.9765 42.4851 17.0261 41.7674 20.5822 41.7674V40.7168H0V41.7674C3.63885 41.7674 5.78908 43.2964 5.78908 48.6741V77.9965C5.78908 91.0922 14.3073 97.999 24.9654 97.999C35.2203 97.999 45.1445 92.6941 45.0618 78.3189H43.9867C43.9867 88.6062 37.536 94.3896 29.1005 94.3896ZM29.1005 94.5144C24.4795 94.5144 20.6133 93.0269 17.9255 90.2289C15.3307 87.5244 13.8421 83.6134 13.8421 78.6414V48.8405C13.8421 45.616 14.6278 43.8165 15.8683 42.8179C17.0778 41.8402 18.7008 41.6425 20.4582 41.6321V40.852H0.124052V41.6321C1.9228 41.6529 3.3494 42.0586 4.35215 43.1092C5.36524 44.191 5.91313 45.9489 5.91313 48.6741V77.9965C5.91313 84.2479 7.86695 89.0743 11.0613 92.4028C14.5244 96.0122 19.4554 97.8741 24.9654 97.8741H25.1411C30.1859 97.8429 35.1376 96.5115 38.8178 93.443C42.5084 90.3641 44.9274 85.5377 44.9274 78.4958V78.4438H44.1107C44.09 83.4054 42.5601 87.3164 40.0377 90.0417C37.3292 92.9645 33.4836 94.5144 29.1005 94.5144Z" fill="white"/>
</svg>
